<svg width="375" height="253" viewBox="0 0 375 253" fill="none" xmlns="http://www.w3.org/2000/svg">
<g clip-path="url(#clip0_157_10)">
<path d="M298.573 184.187C295.089 183.616 293.114 183.666 290.089 185.527C286.012 188.036 284.262 191.415 286.002 196.053C280.151 199.895 280.161 210.183 286.377 213.733C283.26 223.407 290.219 230.218 300.072 228.888C301.41 237.114 310.044 239.579 317.466 237.409C319.615 236.781 320.48 235.014 322.166 233.748C327.605 235.716 332.541 235.266 335.654 230.084C338.181 225.875 338.225 221.573 337.636 216.844C344.454 214.2 346.178 205.377 340.647 200.51C344.512 194.202 340.296 187.431 332.755 188.61C332.554 187.293 333.205 186.118 333.106 184.815C332.561 177.644 320.112 171.722 315.855 179.091C314.118 177.986 312.394 176.777 310.256 176.562C305.94 176.132 299.377 179.672 298.573 184.187ZM320.613 191.609C323.651 192.281 323.29 197.823 319.285 196.95C316.114 196.258 316.785 190.76 320.613 191.609ZM307.241 193.064C310.927 193.863 309.033 199.17 306.128 197.85C303.342 196.587 304.258 192.415 307.241 193.064ZM326.161 197.114C327.731 195.559 330.541 198.072 329.077 199.805C327.255 201.961 324.356 198.898 326.161 197.114ZM301.114 202.23C302.364 203.264 301.833 206.771 299.602 206.122C296.611 205.256 298.927 200.419 301.114 202.23ZM316.672 203.734C321.236 208.161 315.201 214.825 310.463 210.405C306.291 206.509 312.984 200.154 316.672 203.734ZM329.509 202.959C334.662 203.761 331.519 211.701 327.36 208.02C325.071 205.995 326.723 202.525 329.509 202.959ZM301.673 212.091C304.06 212.454 304.735 216.514 302.044 217.092C298.103 217.942 298.56 211.621 301.673 212.091ZM324.717 213.935C327.34 214.217 327.667 218.593 324.775 218.6C321.883 218.607 322.095 213.653 324.717 213.935ZM314.85 219.44C316.304 220.874 314.615 224.434 312.125 222.674C309.704 220.961 312.895 217.512 314.85 219.44Z" fill="#EEDBD1"/>
<path d="M316.672 203.734C312.984 200.154 306.291 206.509 310.463 210.405C315.201 214.828 321.236 208.165 316.672 203.734Z" fill="white"/>
<path d="M329.509 202.959C326.723 202.525 325.075 205.995 327.36 208.02C331.519 211.701 334.662 203.761 329.509 202.959Z" fill="white"/>
<path d="M320.613 191.609C316.788 190.763 316.114 196.258 319.285 196.95C323.286 197.823 323.648 192.281 320.613 191.609Z" fill="white"/>
<path d="M307.241 193.064C304.261 192.416 303.345 196.587 306.127 197.85C309.033 199.167 310.926 193.863 307.241 193.064Z" fill="white"/>
<path d="M301.673 212.091C298.56 211.621 298.103 217.942 302.044 217.092C304.735 216.511 304.06 212.45 301.673 212.091Z" fill="white"/>
<path d="M324.717 213.935C322.098 213.653 322.027 218.603 324.775 218.6C327.663 218.593 327.34 214.217 324.717 213.935Z" fill="white"/>
<path d="M314.85 219.44C312.895 217.512 309.704 220.961 312.125 222.674C314.612 224.434 316.304 220.874 314.85 219.44Z" fill="white"/>
<path d="M301.114 202.23C298.928 200.419 296.612 205.256 299.602 206.122C301.833 206.767 302.364 203.264 301.114 202.23Z" fill="white"/>
<path d="M326.161 197.114C324.356 198.901 327.258 201.961 329.077 199.805C330.541 198.068 327.731 195.559 326.161 197.114Z" fill="white"/>
<path d="M332.329 120.209C331.434 125.802 335.262 130.433 340.452 132.153C343.426 133.137 346.035 132.717 348.47 130.813C355.568 137.174 367.192 133.322 366.913 123.45C376.77 124.693 377.648 109.925 369.883 106.976C370.36 105.955 371.075 104.917 371.283 103.785C372.083 99.459 371.807 93.6819 367.165 91.5391C363.851 90.0108 361.218 91.4417 358.017 92.3317C356.906 87.6295 348.998 84.7511 344.802 86.0912C342.268 86.9007 341.069 88.8857 339.567 90.8371C334.046 89.3022 329.516 92.8591 328.392 98.0987C328.222 98.9014 328.44 99.7881 328.232 100.504C328.126 100.87 326.72 102.284 326.291 102.982C321.597 110.57 323.791 117.341 332.333 120.209H332.329ZM342.891 98.2431C344.761 98.7704 345.572 102.861 342.973 102.986C338.76 103.184 339.85 97.3866 342.891 98.2431ZM354.032 100.074C355.258 100.416 355.789 102.871 353.739 102.982C350.823 103.14 351.944 99.4892 354.032 100.074ZM360.694 103.043C363.797 100.148 367.349 108.665 361.91 107.705C359.89 107.349 359.314 104.329 360.694 103.043ZM340.296 107.046C341.954 107.537 341.508 110.503 339.918 110.953C336.767 111.843 336.467 105.914 340.296 107.046ZM351.794 107.406C355.5 108.198 355.387 115.406 350.098 114.224C345.916 113.29 347.932 106.579 351.794 107.406ZM363.855 114.943C361.767 116.978 359.628 112.958 361.712 111.91C363.528 110.996 365.023 113.801 363.855 114.943ZM345.864 118.389C347.571 118.883 347.584 121.039 345.864 121.556C342.741 122.497 342.69 117.469 345.864 118.389ZM356.644 118.768C360.19 119.155 359.808 123.702 355.977 123.091C353.3 122.661 354.328 118.516 356.644 118.768Z" fill="#EEDBD1"/>
<path d="M351.794 107.406C347.929 106.576 345.916 113.287 350.098 114.224C355.391 115.406 355.5 108.202 351.794 107.406Z" fill="white"/>
<path d="M360.694 103.043C359.314 104.329 359.89 107.349 361.91 107.705C367.349 108.665 363.793 100.148 360.694 103.043Z" fill="white"/>
<path d="M342.891 98.2432C339.853 97.3867 338.76 103.184 342.973 102.986C345.571 102.865 344.757 98.7705 342.891 98.2432Z" fill="white"/>
<path d="M356.644 118.768C354.328 118.516 353.299 122.661 355.976 123.091C359.808 123.706 360.189 119.155 356.644 118.768Z" fill="white"/>
<path d="M340.296 107.046C336.464 105.914 336.767 111.843 339.918 110.952C341.508 110.502 341.955 107.537 340.296 107.046Z" fill="white"/>
<path d="M363.854 114.943C365.026 113.801 363.531 111 361.712 111.91C359.628 112.958 361.767 116.978 363.854 114.943Z" fill="white"/>
<path d="M345.865 118.389C342.69 117.469 342.741 122.497 345.865 121.556C347.585 121.039 347.571 118.883 345.865 118.389Z" fill="white"/>
<path d="M354.032 100.074C351.941 99.4893 350.82 103.14 353.739 102.982C355.789 102.872 355.261 100.416 354.032 100.074Z" fill="white"/>
<path d="M69.6584 222.015C61.5319 222.757 60.8064 235.544 67.6898 238.523C66.886 242.681 68.0133 246.469 72.3865 247.803C73.2993 248.082 75.4723 248.209 76.0241 248.609C76.4055 248.884 76.9914 250.769 77.8633 251.555C78.3435 251.985 79.6139 252.72 80.2134 252.898C83.902 254.017 89.7806 253.603 92.3657 250.443C92.7506 249.973 93.0605 248.841 93.3432 248.774C94.3309 248.535 95.6286 249.217 96.8956 249.083C100.257 248.723 102.202 246.177 102.662 243.027C102.812 241.996 102.498 239.084 102.583 238.896C102.832 238.325 104.324 237.451 104.773 236.689C105.536 235.399 105.543 232.598 105.271 231.127C105.08 230.082 104.075 229.128 104.031 228.497C103.956 227.442 104.453 226.297 104.16 224.9C103.612 222.293 100.169 220.402 97.7232 219.902C97.1374 211.787 87.8631 209.433 82.8223 215.808C81.3509 215.519 79.9647 214.857 78.4389 214.756C73.4492 214.424 70.578 217.416 69.6584 222.018V222.015ZM87.2772 223.586C88.9087 224.047 88.4591 226.569 86.6676 226.384C84.4163 226.156 85.1758 222.995 87.2772 223.586ZM78.3469 228.937C76.8245 227.442 79.866 225.995 80.6902 227.174C81.6575 228.557 79.4402 230.008 78.3469 228.937ZM95.2812 227.98C95.7205 229.887 94.9372 231.406 93.0741 229.971C92.5087 229.323 92.6041 228.43 93.2649 227.896C93.8881 227.315 94.6272 227.711 95.2812 227.98ZM86.1499 229.085C90.6491 229.756 90.0054 238.318 84.951 236.514C80.7072 234.999 83.1629 228.641 86.1499 229.085ZM95.0496 232.044C96.7355 230.368 99.1469 234.072 96.1973 234.428C94.8452 234.593 94.2083 232.88 95.0496 232.044ZM75.3293 234.926C77.2025 234.093 78.8782 234.304 78.0915 236.736C76.3306 237.663 74.7809 237.089 75.3293 234.926ZM94.0346 238.301C94.5216 238.301 95.5025 239.05 95.649 239.524C96.4187 242.056 91.7799 241.475 92.9038 238.899C93.0503 238.664 93.7417 238.301 94.0346 238.301ZM79.7876 240.42C80.5369 239.366 83.2276 240.525 82.1684 242.214C81.1091 243.903 78.834 241.764 79.7876 240.42ZM86.6029 241.962C88.4863 241.955 88.2854 244.971 86.2521 244.783C84.1949 244.595 84.9442 241.965 86.6029 241.962Z" fill="#EEDBD1"/>
<path d="M86.15 229.085C83.163 228.638 80.7074 234.996 84.9512 236.514C90.0055 238.321 90.6458 229.756 86.15 229.085Z" fill="white"/>
<path d="M75.3294 234.925C74.7776 237.088 76.3273 237.663 78.0916 236.736C78.8817 234.304 77.206 234.092 75.3294 234.925Z" fill="white"/>
<path d="M87.2772 223.586C85.1758 222.995 84.4162 226.156 86.6675 226.384C88.4591 226.566 88.9086 224.043 87.2772 223.586Z" fill="white"/>
<path d="M94.0345 238.301C93.7416 238.301 93.0502 238.664 92.9037 238.899C91.7798 241.475 96.4186 242.053 95.6489 239.524C95.5058 239.05 94.5215 238.304 94.0345 238.301Z" fill="white"/>
<path d="M95.2812 227.98C94.6272 227.708 93.8881 227.311 93.2649 227.896C92.6041 228.43 92.5087 229.323 93.0741 229.971C94.9338 231.406 95.7205 229.887 95.2812 227.98Z" fill="white"/>
<path d="M86.6029 241.962C84.9442 241.969 84.1949 244.595 86.2521 244.783C88.2889 244.971 88.4864 241.955 86.6029 241.962Z" fill="white"/>
<path d="M95.0496 232.044C94.2083 232.88 94.8452 234.593 96.1974 234.428C99.1469 234.072 96.7355 230.368 95.0496 232.044Z" fill="white"/>
<path d="M78.3468 228.937C79.4401 230.008 81.6573 228.557 80.6901 227.174C79.8658 225.995 76.8209 227.442 78.3468 228.937Z" fill="white"/>
<path d="M79.7876 240.42C78.8306 241.764 81.1568 243.826 82.1684 242.214C83.1799 240.602 80.5403 239.366 79.7876 240.42Z" fill="white"/>
<path d="M137.49 140.213C133.042 141.288 130.518 144.331 130.62 148.936C130.682 151.67 132.722 153.45 134.524 155.173C133.962 159.123 133.492 161.518 136.829 164.215C139.871 166.673 142.545 165.76 144.145 166.704C144.288 166.788 144.997 168.323 145.525 168.823C149.656 172.743 159.322 172.162 160.95 165.898C167.401 167.782 172.295 162.666 170.034 156.375C169.788 155.69 168.988 155.217 169.077 154.39C171.26 153.393 172.237 150.316 172.411 148.093C172.786 143.344 168.671 139.061 163.934 138.776C164.165 133.039 160.964 129.667 154.973 130.913C153.726 131.172 152.149 132.518 151.451 132.586C150.552 132.673 148.825 131.719 147.722 131.514C141.25 130.315 137.677 133.966 137.487 140.213H137.49ZM154.993 141.426C155.232 145.49 149.932 142.763 153.014 141.043C153.655 140.687 153.982 140.687 154.544 140.898C154.659 140.942 154.986 141.301 154.993 141.426ZM146.925 143.253C149.755 143.784 147.708 146.733 145.324 145.591C144.343 144.969 145.13 142.914 146.925 143.253ZM159.864 147.183C159.155 146.682 159.537 144.633 161.12 144.627C164.036 144.613 161.59 148.398 159.864 147.183ZM153.246 146.927C157.238 147.797 156.672 155.19 151.754 153.527C147.269 152.012 149.118 146.027 153.246 146.927ZM163.671 149.829C165.218 150.33 163.733 153.447 162.047 151.801C160.892 150.676 162.077 149.315 163.671 149.829ZM143.542 153.393C142.582 149.91 147.521 151.052 146.277 153.443C145.606 154.73 144.547 153.729 143.542 153.393ZM159.567 156.443C160.838 156.819 161.223 158.878 159.268 158.968C156.4 159.099 156.444 155.519 159.567 156.443ZM150.303 157.155C151.492 157.373 151.717 159.553 150.283 159.969C147.054 160.91 148.375 156.802 150.303 157.155Z" fill="#EEDBD1"/>
<path d="M153.246 146.927C149.118 146.027 147.272 152.013 151.754 153.527C156.669 155.19 157.238 147.797 153.246 146.927Z" fill="white"/>
<path d="M159.567 156.443C156.444 155.519 156.4 159.099 159.268 158.968C161.223 158.878 160.838 156.819 159.567 156.443Z" fill="white"/>
<path d="M146.925 143.253C145.126 142.917 144.343 144.973 145.324 145.591C147.708 146.733 149.755 143.784 146.925 143.253Z" fill="white"/>
<path d="M143.542 153.393C144.547 153.729 145.606 154.73 146.277 153.443C147.52 151.052 142.585 149.91 143.542 153.393Z" fill="white"/>
<path d="M150.303 157.155C148.376 156.802 147.054 160.91 150.283 159.969C151.717 159.553 151.492 157.373 150.303 157.155Z" fill="white"/>
<path d="M154.492 140.851C153.975 140.67 153.624 140.7 153.014 141.043C149.952 142.752 155.16 145.453 154.996 141.506C154.99 141.362 154.632 140.902 154.492 140.855V140.851Z" fill="white"/>
<path d="M159.864 147.183C161.59 148.398 164.036 144.613 161.12 144.627C159.537 144.633 159.155 146.682 159.864 147.183Z" fill="white"/>
<path d="M163.672 149.829C162.078 149.315 160.892 150.676 162.047 151.801C163.733 153.447 165.221 150.33 163.672 149.829Z" fill="white"/>
<path d="M279.984 134.746C279.895 134.877 277.835 135.465 277.085 136.099C272.692 139.831 273.509 145.45 278.059 148.644C278.713 149.104 280.89 150.018 280.985 150.152C281.179 150.438 281.329 152.352 281.608 153.199C283.049 157.572 288.71 159.95 293.025 158.401C293.648 158.176 294.881 157.256 295.075 157.246C295.504 157.219 298.852 158.986 300.644 158.986C303.287 158.986 307.606 156.641 308.174 153.934C308.505 152.366 307.766 149.998 307.936 149.326C308.045 148.896 308.713 148.55 308.948 148.103C310.453 145.252 309.949 141.541 307.269 139.599C306.942 139.361 306.185 139.28 306.08 139.139C305.698 138.615 306.502 136.24 306.318 135.068C305.773 131.612 302.122 129.372 298.771 129.288C297.361 129.254 295.069 130.5 294.418 130.346C293.767 130.191 292.385 128.871 291.101 128.462C287.007 127.152 281.69 128.183 280.29 132.667C280.099 133.281 280.113 134.558 279.984 134.742V134.746ZM288.624 136.949C287.337 135.105 291.196 133.234 291.21 136.076C291.22 137.876 288.989 137.473 288.624 136.949ZM295.722 138.729C294.363 137.436 294.84 135.407 296.877 135.216C300.232 136.596 297.647 140.556 295.722 138.729ZM293.876 139.975C298.171 140.637 296.605 149.447 291.894 145.981C289.006 143.855 291.622 139.626 293.876 139.975ZM285.287 140.338C286.176 140.157 287.586 140.153 288.035 141.017C289.241 143.321 283.447 143.798 285.287 140.338ZM303.185 143.264C304.241 143.606 304.772 145.809 303.072 146.354C299.905 147.361 300.164 142.286 303.185 143.264ZM287.177 151.18C285.964 149.971 286.996 147.17 288.948 148.151C290.12 148.738 289.96 151.288 288.686 151.59C288.226 151.654 287.487 151.492 287.177 151.183V151.18ZM297.984 149.884C300.051 150.092 299.622 152.927 297.691 152.752C295.791 152.577 296.012 149.685 297.984 149.884Z" fill="#EEDBD1"/>
<path d="M293.876 139.975C291.618 139.626 289.002 143.858 291.894 145.981C296.608 149.447 298.171 140.637 293.876 139.975Z" fill="white"/>
<path d="M295.722 138.729C297.647 140.556 300.235 136.597 296.877 135.216C294.84 135.408 294.363 137.436 295.722 138.729Z" fill="white"/>
<path d="M303.185 143.264C300.16 142.283 299.905 147.361 303.072 146.354C304.775 145.813 304.244 143.606 303.185 143.264Z" fill="white"/>
<path d="M287.177 151.18C287.487 151.489 288.226 151.65 288.686 151.586C289.96 151.284 290.12 148.738 288.948 148.147C286.993 147.17 285.965 149.968 287.177 151.177V151.18Z" fill="white"/>
<path d="M285.287 140.338C283.448 143.798 289.241 143.321 288.035 141.017C287.586 140.153 286.176 140.157 285.287 140.338Z" fill="white"/>
<path d="M297.984 149.884C296.012 149.685 295.787 152.577 297.691 152.752C299.622 152.927 300.051 150.092 297.984 149.884Z" fill="white"/>
<path d="M288.624 136.949C288.989 137.473 291.22 137.876 291.209 136.076C291.196 133.234 287.337 135.102 288.624 136.949Z" fill="white"/>
<path d="M221.095 189.416C220.04 189.245 218.939 189.446 217.941 189.802C217.107 190.098 216.119 191.042 215.561 191.102C215.053 191.156 212.094 189.772 210.755 189.738C209.519 189.708 207.461 190.548 206.716 191.545C206.068 192.412 206.082 193.799 205.581 194.454C205.217 194.934 204.294 195.106 203.735 195.562C200.953 197.836 200.83 202.115 203.735 204.349C204.383 204.849 206.106 205.414 206.341 205.807C206.716 206.435 206.552 208.161 207.186 209.367C208.555 211.967 212.104 212.487 214.689 211.493C215.22 211.288 215.874 210.532 216.293 210.62C216.627 210.69 217.114 211.291 217.655 211.49C223.371 213.589 228.394 207.802 226.65 202.256C226.337 201.262 224.886 199.7 224.808 198.998C224.757 198.528 225.101 197.846 225.101 197.228C225.111 194.034 225.298 190.094 221.095 189.416ZM213.34 193.776C214.655 194.202 213.766 196.61 212.342 196.254C210.813 195.875 210.895 192.98 213.34 193.776ZM219.627 194.891C221.099 195.321 220.949 197.541 219.311 197.769C216.402 198.172 216.753 194.051 219.627 194.891ZM216.286 198.558C217.747 198.985 217.887 202.552 215.98 202.878C211.477 203.65 212.155 197.349 216.286 198.558ZM209.542 201.004C209.267 200.359 208.865 199.63 209.457 199.019C209.999 198.367 210.905 198.276 211.562 198.831C213.017 200.664 211.477 201.437 209.542 201.004ZM213.858 203.697C215.37 205.289 212.809 207.842 211.317 206.025C209.9 204.299 213.023 202.817 213.858 203.697ZM221.184 203.738C222.785 203.731 223.786 206.945 221.184 206.945C218.582 206.945 219.338 203.744 221.184 203.738Z" fill="#EEDBD1"/>
<path d="M216.286 198.558C212.155 197.353 211.477 203.65 215.98 202.878C217.887 202.552 217.747 198.985 216.286 198.558Z" fill="white"/>
<path d="M213.858 203.697C213.023 202.817 209.9 204.302 211.317 206.025C212.809 207.842 215.37 205.289 213.858 203.697Z" fill="white"/>
<path d="M221.184 203.738C219.338 203.744 218.664 206.949 221.184 206.945C223.704 206.942 222.781 203.731 221.184 203.738Z" fill="white"/>
<path d="M219.627 194.891C216.756 194.051 216.402 198.172 219.311 197.769C220.949 197.541 221.099 195.324 219.627 194.891Z" fill="white"/>
<path d="M209.543 201.004C211.477 201.437 213.017 200.664 211.562 198.831C210.905 198.273 209.999 198.367 209.457 199.019C208.868 199.633 209.27 200.362 209.543 201.004Z" fill="white"/>
<path d="M213.34 193.776C210.895 192.98 210.813 195.875 212.342 196.254C213.766 196.607 214.655 194.202 213.34 193.776Z" fill="white"/>
<path d="M302.415 4.20729C298.825 3.58929 296.243 3.07204 293.188 5.54071C290.716 7.5358 291.666 9.21517 290.797 10.5016C290.624 10.7568 288.56 11.4051 287.817 11.9559C282.892 15.5867 282.831 25.1826 289.469 26.9896C288.314 34.0631 293.106 39.5143 300.453 39.4304C301.172 39.4237 302.084 38.9669 302.595 39.0911C302.827 39.1482 304.656 40.7638 305.337 41.1668C307.915 42.685 311.931 43.8538 314.816 42.9671C319.192 41.6203 321.093 37.0524 319.938 32.8338C324.765 31.7086 329.022 27.7554 326.798 22.5695C326.478 21.8205 325.483 20.917 325.504 20.1848C325.521 19.6676 326.703 18.2938 326.897 17.1754C327.884 11.4252 323.378 7.01856 317.748 6.78344C315.974 -1.23386 306.873 -2.21125 302.418 4.20729H302.415ZM308.096 14.1021C307.037 12.584 309.612 11.002 310.484 12.2951C311.822 14.2768 308.845 15.1769 308.096 14.1021ZM301.042 14.1962C301.792 13.1415 304.482 14.3003 303.423 15.9897C302.364 17.6792 300.089 15.5397 301.042 14.1962ZM315.981 16.7555C317.697 17.3131 315.684 20.1311 314.363 19.4795C312.738 18.6767 313.849 16.0636 315.981 16.7555ZM308.9 18.2535C312.772 19.1268 310.129 27.8629 305.627 23.6745C303.532 21.7265 305.477 17.481 308.9 18.2535ZM298.808 22.5258C298.348 20.645 299.442 19.7079 301.202 20.7155L300.998 22.3915C300.266 22.9658 299.615 22.9155 298.808 22.5258ZM314.077 24.8535C315.15 23.8156 317.139 24.8535 316.417 26.2305C315.868 27.0198 314.935 27.1038 314.029 26.9191C313.733 26.2943 313.532 25.3808 314.08 24.8501L314.077 24.8535ZM309.114 28.1081C310.071 29.4516 307.745 31.5138 306.734 29.9016C305.722 28.2894 308.362 27.0534 309.114 28.1081ZM302.428 29.8412C301.632 30.9596 298.954 29.6027 300.041 28.0342C300.944 26.7276 303.488 28.3566 302.428 29.8412Z" fill="#EEDBD1"/>
<path d="M308.9 18.2535C305.48 17.481 303.535 21.7264 305.627 23.6745C310.129 27.8628 312.769 19.1268 308.9 18.2535Z" fill="white"/>
<path d="M315.981 16.7556C313.849 16.067 312.738 18.6768 314.363 19.4795C315.681 20.1311 317.697 17.3098 315.981 16.7556Z" fill="white"/>
<path d="M308.096 14.1021C308.845 15.1735 311.822 14.2767 310.483 12.2951C309.612 11.002 307.037 12.5839 308.096 14.1021Z" fill="white"/>
<path d="M309.114 28.108C308.365 27.0534 305.674 28.2122 306.734 29.9016C307.793 31.591 310.068 29.4515 309.114 28.108Z" fill="white"/>
<path d="M314.077 24.8535C313.529 25.3842 313.733 26.2944 314.026 26.9225C314.932 27.1072 315.868 27.0232 316.413 26.2339C317.135 24.8568 315.146 23.8156 314.074 24.8568L314.077 24.8535Z" fill="white"/>
<path d="M301.042 14.1962C300.085 15.5397 302.411 17.6019 303.423 15.9898C304.435 14.3776 301.795 13.1415 301.042 14.1962Z" fill="white"/>
<path d="M302.428 29.8411C303.484 28.3566 300.943 26.731 300.041 28.0342C298.954 29.6027 301.635 30.9596 302.428 29.8411Z" fill="white"/>
<path d="M298.808 22.5258C299.615 22.9154 300.266 22.9692 300.998 22.3915L301.202 20.7155C299.442 19.7078 298.348 20.6483 298.808 22.5258Z" fill="white"/>
</g>
<defs>
<clipPath id="clip0_157_10">
<rect width="375" height="253" fill="white"/>
</clipPath>
</defs>
</svg>
