<svg width="1920" height="682" viewBox="0 0 1920 682" fill="none" xmlns="http://www.w3.org/2000/svg">
<g clip-path="url(#clip0_79_87)">
<path d="M1747.59 249.761C1745.73 261.38 1753.68 271.003 1764.47 274.576C1770.65 276.621 1776.07 275.749 1781.13 271.792C1795.87 285.009 1820.03 277.005 1819.45 256.495C1839.93 259.077 1841.75 228.393 1825.62 222.266C1826.61 220.144 1828.09 217.988 1828.53 215.636C1830.19 206.648 1829.61 194.645 1819.97 190.192C1813.08 187.017 1807.61 189.99 1800.96 191.839C1798.66 182.069 1782.22 176.089 1773.5 178.873C1768.24 180.555 1765.75 184.679 1762.63 188.734C1751.16 185.545 1741.75 192.935 1739.41 203.821C1739.06 205.489 1739.51 207.332 1739.08 208.818C1738.86 209.579 1735.94 212.517 1735.04 213.968C1725.29 229.733 1729.85 243.801 1747.6 249.761H1747.59ZM1769.54 204.121C1773.42 205.217 1775.1 213.717 1769.7 213.975C1760.95 214.387 1763.22 202.342 1769.54 204.121ZM1792.68 207.925C1795.23 208.637 1796.33 213.738 1792.07 213.968C1786.02 214.296 1788.34 206.71 1792.68 207.925ZM1806.52 214.094C1812.97 208.078 1820.35 225.776 1809.05 223.78C1804.85 223.04 1803.66 216.766 1806.52 214.094ZM1764.14 222.412C1767.59 223.431 1766.66 229.593 1763.36 230.528C1756.81 232.377 1756.19 220.06 1764.14 222.412ZM1788.03 223.159C1795.73 224.806 1795.5 239.782 1784.51 237.325C1775.82 235.385 1780.01 221.442 1788.03 223.159ZM1813.09 238.819C1808.75 243.048 1804.31 234.694 1808.64 232.517C1812.41 230.619 1815.52 236.446 1813.09 238.819ZM1775.71 245.979C1779.26 247.004 1779.29 251.485 1775.71 252.559C1769.22 254.513 1769.12 244.066 1775.71 245.979ZM1798.11 246.767C1805.48 247.57 1804.68 257.019 1796.72 255.748C1791.16 254.855 1793.3 246.244 1798.11 246.767Z" fill="#EEDBD1"/>
<path d="M298.932 301.175C296.174 300.691 293.299 301.26 290.692 302.266C288.512 303.1 285.931 305.765 284.471 305.935C283.145 306.087 275.412 302.18 271.915 302.085C268.684 302 263.309 304.371 261.36 307.187C259.67 309.634 259.705 313.55 258.397 315.4C257.445 316.756 255.033 317.239 253.574 318.529C246.303 324.949 245.983 337.03 253.574 343.337C255.265 344.75 259.767 346.343 260.381 347.452C261.36 349.226 260.933 354.1 262.588 357.504C266.166 364.844 275.439 366.314 282.193 363.507C283.581 362.929 285.29 360.795 286.385 361.041C287.257 361.241 288.529 362.938 289.944 363.498C304.877 369.424 318.003 353.085 313.447 337.429C312.628 334.622 308.837 330.212 308.632 328.23C308.499 326.902 309.398 324.977 309.398 323.233C309.424 314.214 309.914 303.091 298.932 301.175ZM278.669 313.484C282.104 314.688 279.782 321.488 276.062 320.482C272.066 319.411 272.28 311.236 278.669 313.484ZM295.097 316.632C298.941 317.846 298.55 324.114 294.269 324.759C286.669 325.897 287.586 314.262 295.097 316.632ZM286.367 326.988C290.185 328.192 290.549 338.263 285.566 339.183C273.801 341.364 275.572 323.574 286.367 326.988ZM268.747 333.891C268.026 332.071 266.976 330.013 268.524 328.287C269.939 326.447 272.306 326.191 274.024 327.756C277.824 332.934 273.801 335.115 268.747 333.891ZM280.022 341.497C283.973 345.992 277.281 353.199 273.383 348.069C269.681 343.194 277.842 339.012 280.022 341.497ZM299.164 341.611C303.346 341.592 305.963 350.667 299.164 350.667C292.365 350.667 294.34 341.63 299.164 341.611Z" fill="#EEDBD1"/>
<path d="M1685.44 8.74157C1677.98 7.45753 1672.61 6.38284 1666.27 11.512C1661.13 15.6573 1663.1 19.1465 1661.3 21.8193C1660.94 22.3497 1656.65 23.6965 1655.11 24.841C1644.87 32.3848 1644.75 52.3224 1658.54 56.0768C1656.14 70.7736 1666.1 82.0997 1681.36 81.9252C1682.85 81.9113 1684.75 80.9622 1685.81 81.2204C1686.29 81.339 1690.09 84.6957 1691.51 85.5331C1696.87 88.6874 1705.21 91.1159 1711.2 89.2736C1720.3 86.4752 1724.24 76.9844 1721.85 68.2194C1731.87 65.8816 1740.72 57.6679 1736.1 46.8931C1735.43 45.3369 1733.37 43.4597 1733.41 41.9384C1733.44 40.8637 1735.9 38.0094 1736.3 35.6856C1738.36 23.7384 1728.99 14.5826 1717.3 14.0941C1713.61 -2.56362 1694.7 -4.59436 1685.44 8.74157H1685.44ZM1697.24 29.3003C1695.04 26.146 1700.39 22.8591 1702.2 25.5458C1704.98 29.6631 1698.8 31.5334 1697.24 29.3003ZM1682.59 29.4957C1684.14 27.3044 1689.73 29.712 1687.53 33.2222C1685.33 36.7324 1680.6 32.2871 1682.59 29.4957ZM1713.62 34.8133C1717.19 35.9717 1713.01 41.8267 1710.26 40.4729C1706.89 38.805 1709.19 33.3757 1713.62 34.8133ZM1698.91 37.9257C1706.96 39.7401 1701.47 57.8912 1692.11 49.189C1687.76 45.1415 1691.8 36.3206 1698.91 37.9257ZM1677.94 46.8024C1676.99 42.8944 1679.26 40.9474 1682.92 43.041L1682.49 46.5232C1680.97 47.7166 1679.62 47.6119 1677.94 46.8024ZM1709.67 51.6385C1711.9 49.4821 1716.03 51.6385 1714.53 54.4997C1713.39 56.1396 1711.45 56.3141 1709.57 55.9303C1708.95 54.6323 1708.53 52.7341 1709.67 51.6315L1709.67 51.6385ZM1699.36 58.4007C1701.35 61.1921 1696.51 65.4769 1694.41 62.1272C1692.31 58.7775 1697.79 56.2094 1699.36 58.4007ZM1685.47 62.0016C1683.81 64.3254 1678.25 61.5061 1680.5 58.2471C1682.38 55.5325 1687.67 58.9171 1685.47 62.0016Z" fill="#EEDBD1"/>
<path d="M1677.45 382.688C1670.22 381.501 1666.11 381.606 1659.83 385.472C1651.36 390.685 1647.72 397.705 1651.34 407.343C1639.18 415.326 1639.2 436.701 1652.11 444.078C1645.64 464.176 1660.1 478.328 1680.57 475.565C1683.35 492.655 1701.29 497.777 1716.71 493.269C1721.17 491.964 1722.97 488.294 1726.47 485.663C1737.78 489.752 1748.03 488.817 1754.5 478.049C1759.75 469.305 1759.84 460.366 1758.62 450.54C1772.78 445.048 1776.36 426.715 1764.87 416.603C1772.9 403.498 1764.14 389.429 1748.48 391.878C1748.06 389.143 1749.41 386.7 1749.2 383.993C1748.07 369.094 1722.21 356.79 1713.36 372.101C1709.75 369.805 1706.17 367.293 1701.73 366.846C1692.76 365.953 1679.12 373.309 1677.45 382.688ZM1723.25 398.11C1729.56 399.506 1728.81 411.02 1720.49 409.206C1713.9 407.768 1715.29 396.345 1723.25 398.11ZM1695.46 401.132C1703.12 402.793 1699.19 413.819 1693.15 411.076C1687.36 408.452 1689.27 399.785 1695.46 401.132ZM1734.77 409.548C1738.04 406.317 1743.88 411.537 1740.83 415.138C1737.05 419.618 1731.02 413.254 1734.77 409.548ZM1682.73 420.176C1685.33 422.326 1684.23 429.611 1679.59 428.264C1673.38 426.464 1678.19 416.415 1682.73 420.176ZM1715.06 423.303C1724.54 432.5 1712 446.346 1702.16 437.162C1693.49 429.067 1707.4 415.864 1715.06 423.303ZM1741.73 421.691C1752.44 423.358 1745.91 439.856 1737.27 432.207C1732.51 427.999 1735.94 420.79 1741.73 421.691ZM1683.89 440.665C1688.86 441.419 1690.26 449.856 1684.67 451.056C1676.48 452.822 1677.43 439.688 1683.89 440.665ZM1731.77 444.496C1737.22 445.083 1737.9 454.176 1731.89 454.19C1725.89 454.204 1726.33 443.91 1731.77 444.496ZM1711.27 455.934C1714.3 458.914 1710.79 466.311 1705.61 462.654C1700.58 459.095 1707.21 451.929 1711.27 455.934Z" fill="#EEDBD1"/>
<path d="M1012.73 563.855C997.192 565.275 995.804 589.73 1008.97 595.428C1007.43 603.381 1009.59 610.627 1017.95 613.177C1019.7 613.711 1023.85 613.955 1024.91 614.719C1025.64 615.246 1026.76 618.85 1028.43 620.353C1029.35 621.175 1031.78 622.582 1032.92 622.922C1039.98 625.062 1051.22 624.271 1056.16 618.227C1056.9 617.327 1057.49 615.162 1058.03 615.034C1059.92 614.578 1062.4 615.882 1064.83 615.625C1071.26 614.938 1074.98 610.068 1075.86 604.043C1076.14 602.071 1075.54 596.501 1075.71 596.141C1076.18 595.049 1079.03 593.379 1079.89 591.921C1081.35 589.454 1081.37 584.097 1080.85 581.283C1080.48 579.285 1078.56 577.461 1078.47 576.253C1078.33 574.236 1079.28 572.046 1078.72 569.373C1077.67 564.388 1071.09 560.772 1066.41 559.815C1065.29 544.295 1047.55 539.791 1037.91 551.984C1035.1 551.431 1032.45 550.166 1029.53 549.973C1019.98 549.337 1014.49 555.061 1012.73 563.862V563.855ZM1046.43 566.862C1049.55 567.742 1048.69 572.566 1045.27 572.213C1040.96 571.776 1042.41 565.731 1046.43 566.862ZM1029.35 577.095C1026.44 574.236 1032.26 571.467 1033.83 573.722C1035.68 576.369 1031.44 579.144 1029.35 577.095ZM1061.74 575.264C1062.58 578.913 1061.08 581.816 1057.52 579.073C1056.44 577.833 1056.62 576.125 1057.88 575.103C1059.08 573.992 1060.49 574.75 1061.74 575.264ZM1044.28 577.377C1052.88 578.662 1051.65 595.036 1041.98 591.587C1033.87 588.69 1038.56 576.529 1044.28 577.377ZM1061.3 583.037C1064.52 579.831 1069.13 586.917 1063.49 587.598C1060.91 587.912 1059.69 584.636 1061.3 583.037ZM1023.58 588.548C1027.16 586.955 1030.37 587.36 1028.86 592.011C1025.5 593.784 1022.53 592.685 1023.58 588.548ZM1059.36 595.004C1060.29 595.004 1062.16 596.437 1062.44 597.343C1063.92 602.186 1055.04 601.075 1057.19 596.148C1057.47 595.698 1058.8 595.004 1059.36 595.004ZM1032.11 599.058C1033.54 597.041 1038.69 599.257 1036.66 602.488C1034.63 605.719 1030.28 601.627 1032.11 599.058ZM1045.14 602.006C1048.74 601.993 1048.36 607.762 1044.47 607.402C1040.54 607.043 1041.97 602.013 1045.14 602.006Z" fill="#EEDBD1"/>
<path d="M1293.28 617.86C1284.04 620.093 1278.79 626.415 1279.01 635.983C1279.13 641.663 1283.37 645.362 1287.12 648.942C1285.95 657.149 1284.97 662.124 1291.91 667.728C1298.23 672.836 1303.78 670.938 1307.11 672.899C1307.4 673.074 1308.88 676.263 1309.97 677.302C1318.56 685.446 1338.64 684.239 1342.02 671.224C1355.43 675.139 1365.59 664.511 1360.9 651.44C1360.39 650.017 1358.72 649.033 1358.91 647.316C1363.44 645.243 1365.47 638.851 1365.84 634.231C1366.61 624.364 1358.07 615.466 1348.22 614.873C1348.7 602.953 1342.05 595.947 1329.6 598.536C1327.01 599.073 1323.74 601.872 1322.29 602.011C1320.42 602.193 1316.83 600.211 1314.54 599.785C1301.09 597.294 1293.67 604.879 1293.27 617.86H1293.28ZM1329.65 620.379C1330.14 628.823 1319.13 623.156 1325.53 619.583C1326.86 618.844 1327.54 618.844 1328.71 619.283C1328.95 619.374 1329.63 620.121 1329.65 620.379ZM1312.88 624.175C1318.76 625.278 1314.51 631.405 1309.56 629.032C1307.52 627.741 1309.15 623.47 1312.88 624.175ZM1339.77 632.34C1338.29 631.3 1339.09 627.043 1342.38 627.029C1348.43 627.001 1343.35 634.866 1339.77 632.34ZM1326.02 631.81C1334.31 633.617 1333.13 648.977 1322.92 645.522C1313.6 642.375 1317.44 629.939 1326.02 631.81ZM1347.68 637.839C1350.89 638.879 1347.8 645.355 1344.3 641.935C1341.9 639.598 1344.37 636.771 1347.68 637.839ZM1305.85 645.243C1303.86 638.006 1314.12 640.379 1311.54 645.348C1310.14 648.021 1307.94 645.941 1305.85 645.243ZM1339.15 651.58C1341.79 652.361 1342.59 656.639 1338.53 656.828C1332.57 657.1 1332.66 649.661 1339.15 651.58ZM1319.9 653.059C1322.37 653.513 1322.84 658.042 1319.86 658.907C1313.15 660.861 1315.9 652.326 1319.9 653.059Z" fill="#EEDBD1"/>
<path d="M1638.83 279.964C1638.65 280.236 1634.37 281.457 1632.81 282.776C1623.68 290.529 1625.38 302.204 1634.83 308.841C1636.19 309.797 1640.71 311.695 1640.91 311.974C1641.31 312.567 1641.63 316.545 1642.21 318.304C1645.2 327.39 1656.96 332.331 1665.93 329.113C1667.22 328.646 1669.78 326.734 1670.19 326.713C1671.08 326.657 1678.04 330.328 1681.76 330.328C1687.25 330.328 1696.22 325.457 1697.4 319.832C1698.09 316.573 1696.55 311.653 1696.91 310.258C1697.13 309.364 1698.52 308.646 1699.01 307.717C1702.14 301.793 1701.09 294.081 1695.52 290.048C1694.84 289.552 1693.27 289.385 1693.05 289.092C1692.26 288.003 1693.93 283.069 1693.55 280.634C1692.41 273.453 1684.83 268.798 1677.87 268.624C1674.94 268.554 1670.17 271.143 1668.82 270.822C1667.47 270.501 1664.6 267.758 1661.93 266.907C1653.42 264.185 1642.38 266.328 1639.47 275.644C1639.07 276.921 1639.1 279.573 1638.83 279.957V279.964ZM1656.78 284.542C1654.11 280.711 1662.13 276.824 1662.16 282.727C1662.18 286.468 1657.54 285.63 1656.78 284.542ZM1671.53 288.24C1668.71 285.554 1669.7 281.339 1673.93 280.941C1680.9 283.809 1675.53 292.037 1671.53 288.24ZM1667.7 290.829C1676.62 292.204 1673.36 310.509 1663.58 303.307C1657.58 298.89 1663.01 290.104 1667.7 290.829ZM1649.85 291.583C1651.7 291.206 1654.63 291.199 1655.56 292.993C1658.07 297.78 1646.03 298.771 1649.85 291.583ZM1687.04 297.661C1689.23 298.373 1690.33 302.951 1686.8 304.082C1680.22 306.175 1680.76 295.631 1687.04 297.661ZM1653.78 314.11C1651.26 311.597 1653.4 305.777 1657.46 307.815C1659.89 309.036 1659.56 314.333 1656.91 314.961C1655.96 315.094 1654.42 314.759 1653.78 314.117V314.11ZM1676.23 311.416C1680.53 311.849 1679.63 317.739 1675.62 317.376C1671.67 317.013 1672.13 311.004 1676.23 311.416Z" fill="#EEDBD1"/>
</g>
<defs>
<clipPath id="clip0_79_87">
<rect width="1920" height="682" fill="white"/>
</clipPath>
</defs>
</svg>
