<svg width="940" height="489" viewBox="0 0 940 489" fill="none" xmlns="http://www.w3.org/2000/svg">
<g clip-path="url(#clip0_79_85)">
<path d="M687.261 181.957C747.843 238.276 718.448 339.46 665.03 389.835C586.249 464.135 429.864 523.228 328.452 466.181C247.909 420.874 258.074 334.678 306.422 268.284C352.137 205.493 405.002 177.694 477.334 153.847C543.119 132.163 633.565 132.046 687.261 181.964V181.957ZM669.401 320.93C700.827 283.737 712.793 245.321 686.114 200.843C666.53 168.193 598.838 153.491 563.61 155.444C492.101 159.412 392.613 194.388 345.304 250.172C304.898 297.819 242.569 400.67 333.108 431.763C390.605 451.51 464.984 441.458 519.603 416.859C561.894 397.81 639.96 355.766 669.393 320.93H669.401Z" fill="#EEDBD1"/>
<path d="M713.3 162.256C739.204 136.681 778.422 106.176 807.997 84.3648C842.944 58.5876 881.831 32.6004 920.518 12.1497C924.235 10.1824 927.929 8.22284 931.839 6.83873C937.919 4.69257 939.566 4.49039 943.475 4.17158C966.309 2.33646 986.764 15.2134 979.515 43.2146C973.373 66.9467 923.243 97.1563 902.641 110.741C870.218 132.125 833.632 155.973 799.232 173.586C783.778 181.494 746.577 200.778 731.054 202.785C720.526 204.145 714.416 198.92 707.959 191.035C696.746 177.342 702.98 172.443 713.3 162.249V162.256Z" fill="#EEDBD1"/>
<path d="M634.643 196.325C633.383 197.591 629.534 197.63 627.721 197.561C616.912 197.154 605.22 194.328 594.48 193.707C502.108 188.378 413.101 229.3 350.752 295.751C336.847 310.569 325.5 327.352 315.69 345.18C312.678 348.205 308.776 347.207 306.294 344.043C305.68 341.356 306.102 338.968 306.878 336.381C308.545 330.838 318.248 314.945 321.905 309.624C343.692 277.9 393.219 237.469 427.114 219.173C489.294 185.622 560.286 172.217 630.341 184.463C636.241 186.482 637.255 190.881 634.643 196.325Z" fill="#EEDBD1"/>
<path d="M402.539 327.86C389.498 314.732 395.382 301.094 405.07 288.233C409.85 281.889 421.832 268.723 430.048 269.004C446.663 269.567 462.343 288.909 460.909 305.034C458.193 335.489 425.552 351.013 402.547 327.86H402.539ZM439.752 287.19C437.274 285.22 431.221 281.623 428.084 282.794C422.139 285.008 407.218 305.818 408.3 312.26C408.852 315.546 414.214 320.756 417.076 322.376C427.601 328.332 437.251 326.483 443.411 315.903C449.318 305.757 449.479 294.926 439.752 287.19Z" fill="#EEDBD1"/>
<path d="M408.332 365.5C417.768 373.706 418.465 387.6 410.59 397.201C395.546 415.53 338.933 408.252 353.32 374.469C361.404 355.486 394.525 353.499 408.332 365.5ZM381.716 370.222C373.462 370.635 362.835 375.88 364.668 385.847C366.308 394.739 393.86 395.245 399.614 389.299C403.026 385.777 403.699 379.823 400.094 376.207C397.681 373.784 385.436 370.035 381.716 370.222Z" fill="#EEDBD1"/>
<path d="M536.013 271.229C547.595 269.778 561.385 275.165 561.973 288.817C563.05 313.492 532.11 335.962 512.201 319.197C492.488 302.595 517.536 273.542 536.013 271.229ZM537.151 283.439C530.535 284.347 518.184 297.495 517.815 303.906C517.348 311.986 530.354 311.846 535.727 309.821C546.97 305.583 557.549 280.629 537.151 283.439Z" fill="#EEDBD1"/>
<path d="M588.509 211.25C605.677 209.355 617.814 218.32 615.777 235.847C612.76 261.799 566.891 263.367 556.932 243.32C547.765 224.865 573.371 212.916 588.509 211.25ZM585.61 224.431C576.263 225.763 560.278 236.06 575.628 242.103C586.112 246.235 605.152 243.96 602.284 229.386C601.093 223.343 590.39 223.754 585.61 224.431Z" fill="#EEDBD1"/>
<path d="M520.726 348.326C531.106 347.068 539.657 349.246 545.684 358.431C567.055 390.986 502.6 406.146 493.25 382.485C486.86 366.31 506.333 350.08 520.726 348.334V348.326ZM505.845 377.964C512.306 384.317 545.436 378.349 533.793 364.667C528.743 358.73 514.459 361.828 509.455 367.026C507.511 369.046 503.32 375.479 505.845 377.964Z" fill="#EEDBD1"/>
<path d="M439.092 286.714C448.992 294.598 448.836 305.63 442.819 315.979C436.545 326.763 426.716 328.647 415.995 322.577C413.073 320.925 407.619 315.615 407.057 312.266C405.955 305.7 421.152 284.489 427.208 282.233C430.411 281.04 436.576 284.714 439.092 286.714Z" fill="#FBFCFC"/>
<path d="M538.033 282.23C559.154 279.295 548.2 305.359 536.559 309.785C530.996 311.901 517.529 312.047 518.013 303.608C518.403 296.919 531.183 283.186 538.033 282.23Z" fill="#FAFCFC"/>
<path d="M585.711 226.355C590.3 225.707 600.577 225.315 601.721 231.09C604.474 245.021 586.2 247.196 576.126 243.246C561.387 237.47 576.735 227.628 585.711 226.355Z" fill="#F9FBFB"/>
<path d="M275.936 143.347C270.903 149.718 256.987 155.576 248.94 154.955C232.38 153.682 209.121 134.477 210.026 116.629C210.621 105.007 233.02 84.3532 243.267 80.2439C251.645 76.8783 263.79 80.8266 270.669 86.3005C284.834 97.5704 287.079 129.249 275.928 143.347H275.936ZM252.753 91.7591C244.766 92.7328 224.439 109.99 223.301 117.833C222.517 123.246 234.045 135.175 238.761 137.743C251.54 144.697 267.738 140.12 269.63 124.143C270.88 113.517 266.744 90.0571 252.753 91.7668V91.7591Z" fill="#EEDBD1"/>
<path d="M345.058 211.289C357.288 209.489 365.996 216.297 372.249 226.343C387.218 250.382 371.651 285.744 340.769 277.883C331.562 275.536 318.427 269.875 313.777 261.182C307.839 250.09 318.12 234.174 324.964 225.389C330.634 218.112 335.368 212.72 345.058 211.289ZM345.027 224.581C338.483 225.935 324.734 247.405 325.347 253.351C325.915 258.905 344.529 266.021 349.401 265.89C364.139 265.498 367.814 245.059 361.446 234.312C357.856 228.258 352.493 223.035 345.02 224.581H345.027Z" fill="#EEDBD1"/>
<path d="M400.683 133.491C404.596 137.676 411.873 153.082 410.914 158.75C407.533 178.735 371.868 171.986 370.084 154.839C369.269 147.002 374.523 136.938 380.819 132.65C382.072 131.797 389.21 130.056 390.407 130.005C392.973 129.896 398.976 131.665 400.683 133.486V133.491ZM400.81 159.316C402.994 155.635 394.935 139.783 390.829 139.016C385.358 137.991 379.428 147.855 379.639 152.698C379.977 160.421 395.595 162.597 400.81 159.316Z" fill="#EEDBD1"/>
<path d="M254.39 90.0919C268.809 88.3202 273.071 112.631 271.782 123.643C269.841 140.2 253.14 144.943 239.972 137.737C235.111 135.076 223.232 122.713 224.039 117.104C225.204 108.977 246.16 91.1009 254.39 90.0839V90.0919Z" fill="#FCFDFD"/>
<path d="M344.634 226.268C352.077 224.752 357.432 229.894 361.012 235.863C367.362 246.459 363.697 266.611 349.002 266.998C344.144 267.127 325.586 260.111 325.02 254.635C324.408 248.772 338.109 227.603 344.642 226.268H344.634Z" fill="#FCFDFD"/>
<path d="M401.607 160.446C396.039 163.898 379.367 161.609 379.006 153.48C378.781 148.382 385.112 137.999 390.951 139.078C395.329 139.885 403.938 156.571 401.607 160.446Z" fill="#F9FBFB"/>
</g>
<defs>
<clipPath id="clip0_79_85">
<rect width="940" height="489" fill="white"/>
</clipPath>
</defs>
</svg>
