<svg width="375" height="260" viewBox="0 0 375 260" fill="none" xmlns="http://www.w3.org/2000/svg">
<g clip-path="url(#clip0_157_77)">
<rect width="375" height="260" fill="white"/>
<path d="M371.728 134.454C400.819 134.46 403.217 158.699 394.671 181.101C380.077 219.352 337.848 262.614 293.893 259.882C251.361 257.234 269.527 211.885 285.064 190.003C302.103 166.002 341.136 134.447 371.728 134.454ZM366.892 180.831C368.79 183.754 370.997 179.25 371.656 177.479C376.848 163.578 367.894 154.208 353.721 155.973C352.021 156.184 342.849 158.758 341.88 159.562C341.36 159.996 341.116 161.083 341.109 161.781C341.834 165.126 348.364 161.01 350.986 160.418C355.875 159.318 361.634 158.811 365.752 162.242C373.105 168.359 365.594 178.842 366.885 180.831H366.892ZM296.904 211.114C294.078 211.562 292.074 222.519 292.081 225.048C292.094 236.617 302.953 238.441 312.138 236.42C313.746 236.064 325.125 232.337 318.957 230.493C315.808 229.552 307.486 235.669 300.554 232.416C293.623 229.163 296.344 218.41 299.23 212.945L296.904 211.114Z" fill="#EEDBD1"/>
<path d="M346.004 29.0746C361.837 21.3967 379.338 30.9644 374.119 49.639C370.719 61.8078 352.685 69.433 340.931 68.1687C332.207 90.7415 313.277 106.091 288.186 105.136C277.367 104.721 262.305 100.955 253.403 94.6793C234.644 81.4503 219.707 35.396 239.033 17.9989C263.53 -4.04714 320.261 -8.61043 342.057 19.013C344.627 22.2724 345.747 24.8142 346.004 29.068V29.0746ZM288.39 12.0594C275.549 12.9352 259.847 16.7478 250.135 25.5056C244.87 30.2467 244.455 33.651 250.135 38.3789C264.4 50.2646 298.32 44.6938 314.39 38.03C326.699 32.9267 338.651 24.9854 319.615 17.0375C310.206 13.1064 298.551 11.368 288.397 12.0594H288.39ZM343.85 57.7779C350.083 56.9745 354.708 55.8946 359.307 51.3379C372.281 38.4777 352.27 34.0856 346.722 40.9207C345.892 41.9413 343.303 57.0009 343.85 57.7779Z" fill="#EEDBD1"/>
</g>
<defs>
<clipPath id="clip0_157_77">
<rect width="375" height="260" fill="white"/>
</clipPath>
</defs>
</svg>
