<svg width="375" height="496" viewBox="0 0 375 496" fill="none" xmlns="http://www.w3.org/2000/svg">
<g clip-path="url(#clip0_157_76)">
<path d="M3.97185 116.207C-5.38794 121.396 -10.338 128.516 -8.20836 139.505C-6.47807 148.434 10.677 156.884 19.1002 156.834C27.7034 156.784 29.9516 151.975 33.924 145.422C38.5571 148.127 44.0673 152.565 49.7994 151.898C57.7535 150.972 66.6155 139.384 66.8849 131.629L94.8406 142.96C92.482 145.354 87.5011 153.084 87.0888 156.283C86.2919 162.465 93.6852 173.1 97.3177 178.08C99.2768 180.766 101.642 184.09 103.958 186.416C110.191 192.677 118.951 196.157 125.078 202.489C118.452 207 114.088 209.863 116.893 218.644C119.992 228.349 145.446 238.643 154.984 240.303C162.492 241.61 178.17 242.207 178.89 231.473L184.523 232.373C183.262 240.702 181.965 247.708 191.486 250.566C196.279 252.005 209.143 252.889 213.75 251.552C220.028 249.731 219.651 237.653 217.405 232.872C222.198 231.058 222.178 224.933 223.529 221.349C232.506 231.505 245.443 248.067 246.994 261.862C248.025 271.024 237.865 275.658 230.295 276.736C188.821 282.638 131.082 264.645 92.9056 248.336C49.6831 229.872 -2.2324 203.801 -35.5542 170.348C-47.536 158.319 -72.4976 128.223 -48.2936 115.773C-33.9377 108.389 -11.3964 114.171 3.97185 116.207ZM43.4637 156.763C39.8845 157.33 33.5323 159.576 30.6836 161.798C26.4974 165.063 21.5925 174.873 23.5934 180.13C25.4918 185.117 42.0433 196.338 47.5528 196.623C64.3194 197.492 74.9064 189.781 71.7277 171.995C69.4676 159.353 54.6986 154.985 43.4637 156.763Z" fill="#EEDBD1"/>
<path d="M94.8407 142.959C100.976 136.731 107.974 136.387 116.014 139.06C120.705 130.887 129.023 125.133 138.749 125.42C141.304 125.495 144.341 127.197 146.094 126.769C147.315 126.47 152.431 122.119 154.896 121.071C166.153 116.285 173.271 120.61 180.606 129.13C190.554 127.11 199.817 131.783 205.493 139.816C206.805 141.673 208.761 147.059 209.333 147.684C209.922 148.328 213.728 149.216 215.478 150.974C218.466 153.974 221.276 161.822 221.49 166.006C221.591 167.97 220.372 172.612 220.777 173.986C220.988 174.703 223.288 176.328 224.109 177.505C226.897 181.508 227.892 186.212 227.889 191.021C227.889 192.745 226.951 195.107 227.185 196.571C227.794 200.382 230.338 202.48 230.202 208.271C230.026 215.818 225.186 216.953 223.529 221.349C222.179 224.932 222.198 231.058 217.405 232.872C216.403 230.738 209.637 222.655 207.728 221.038C201.915 216.115 198.216 217.94 192.323 221.458C186.998 224.637 185.454 226.22 184.523 232.373L178.891 231.473C179.3 225.361 174.105 219.58 171.543 214.373C167.728 206.617 166.47 197.669 156.826 194.705C145.328 191.17 134.433 196.12 125.078 202.489C118.951 196.157 110.191 192.677 103.958 186.416C101.643 184.09 99.2769 180.766 97.3178 178.08C93.6853 173.1 86.292 162.465 87.0889 156.283C87.5012 153.084 92.4821 145.354 94.8407 142.959ZM165.105 141.998C161.443 146.101 169.208 150.208 171.526 145.553C173.808 140.972 167.957 138.802 165.105 141.998ZM139.91 149.671C135.777 150.793 137.369 157.685 141.667 156.64C145.605 155.682 144.222 148.501 139.91 149.671ZM187.292 161.664C182.671 162.57 185.171 169.97 189.599 166.651C191.933 164.901 189.873 161.159 187.292 161.664ZM206.821 161.97C203.929 162.537 205.493 167.168 208.264 165.091C209.725 163.995 208.436 161.653 206.821 161.97Z" fill="#F3F2E5"/>
<path d="M94.8407 142.959C100.976 136.731 107.974 136.387 116.014 139.06C120.705 130.887 129.023 125.133 138.749 125.42C141.304 125.495 144.341 127.197 146.094 126.769C147.315 126.47 152.431 122.119 154.896 121.071C166.153 116.285 173.271 120.61 180.606 129.13C190.554 127.11 199.817 131.783 205.493 139.816C206.805 141.673 208.761 147.059 209.333 147.684C209.922 148.328 213.728 149.216 215.478 150.974C218.466 153.974 221.276 161.822 221.49 166.006C221.591 167.97 220.372 172.612 220.777 173.986C220.988 174.703 223.288 176.328 224.109 177.505C226.897 181.508 227.892 186.212 227.889 191.021C227.889 192.745 226.951 195.107 227.185 196.571C227.794 200.382 230.338 202.48 230.202 208.271C230.026 215.818 225.186 216.953 223.529 221.349C222.179 224.932 222.198 231.058 217.405 232.872C216.403 230.738 209.637 222.655 207.728 221.038C201.915 216.115 198.216 217.94 192.323 221.458C186.998 224.637 185.454 226.22 184.523 232.373L178.891 231.473C179.3 225.361 174.105 219.58 171.543 214.373C167.728 206.617 166.47 197.669 156.826 194.705C145.328 191.17 134.433 196.12 125.078 202.489C118.951 196.157 110.191 192.677 103.958 186.416C101.643 184.09 99.2769 180.766 97.3178 178.08C93.6853 173.1 86.292 162.465 87.0889 156.283C87.5012 153.084 92.4821 145.354 94.8407 142.959ZM165.105 141.998C161.443 146.101 169.208 150.208 171.526 145.553C173.808 140.972 167.957 138.802 165.105 141.998ZM139.91 149.671C135.777 150.793 137.369 157.685 141.667 156.64C145.605 155.682 144.222 148.501 139.91 149.671ZM187.292 161.664C182.671 162.57 185.171 169.97 189.599 166.651C191.933 164.901 189.873 161.159 187.292 161.664ZM206.821 161.97C203.929 162.537 205.493 167.168 208.264 165.091C209.725 163.995 208.436 161.653 206.821 161.97Z" stroke="white" stroke-width="4"/>
<path d="M101.92 407.227C99.5392 401.227 103.374 394.767 109.981 394.697C112.979 394.662 132.638 409.123 135.677 411.262C151.824 422.601 165.859 434.775 182.903 445.561C183.883 446.186 185.255 447.287 185.969 447.606C187.663 448.367 193.903 445.565 196.835 445.277C203.252 444.644 213.303 445.46 222.477 452.317C233.015 460.189 244.302 486.21 227.938 492.757C213.542 498.518 196.559 491.799 187.538 479.941C182.285 473.029 181.833 465.246 181.077 456.896C169.973 449.174 157.662 443.104 145.9 436.319C142.881 434.579 139.336 432.675 136.313 430.94C129.615 427.102 104.818 414.519 101.92 407.227Z" fill="#EEDBD1"/>
<path d="M145.762 342.86C145.58 343.942 147.152 345.974 148.066 346.74C150.334 348.64 157.251 351.152 163.22 353.412C166.318 354.585 168.974 355.628 170.965 356.623C173.309 357.795 175.645 359.925 174.788 362.215C174.126 363.981 171.596 364.355 168.862 363.663C165.542 362.821 161.898 361.392 160.329 360.9C157.291 359.948 146.082 355.354 143.93 355.759C142.508 356.027 140.883 356.635 141.457 358.369C142.589 361.79 156.201 365.857 159.891 367.676C161.008 368.226 164.789 370.03 167.233 372.059C169.733 374.139 170.84 376.45 166.804 377.527C164.211 378.217 136.53 369.578 132.997 367.669C129.514 365.786 124.653 361.64 122.677 358.187C120.378 354.17 120.631 349.565 117.585 346.271L47.5746 326.308C47.5746 326.308 46.1574 325.816 45.6957 325.631C45.1866 325.427 44.4349 325.118 43.7202 324.739C38.6966 322.082 30.9429 317.605 33.4422 311.807C35.2129 307.698 39.2333 307.779 43.017 307.793C52.557 307.831 78.3505 319.498 88.4993 323.676C99.1307 328.053 109.427 333.394 120.252 337.331C124.628 338.059 123.835 335.862 126.863 334.033C138.948 326.735 158.823 333.392 170.38 339.398C172.977 340.749 182.864 346.198 176.637 348.529C173.481 349.71 162.297 344.604 158.343 343.493C156.173 342.883 146.292 339.729 145.762 342.86Z" fill="#EEDBD1"/>
<path d="M66.8847 131.629C66.6152 139.384 57.7533 150.972 49.7985 151.898C44.067 152.565 38.5568 148.127 33.9237 145.423C29.9513 151.975 27.7032 156.784 19.0999 156.835C10.6767 156.884 -6.47836 148.434 -8.20869 139.505C-10.3384 128.516 -5.38827 121.396 3.97152 116.207C12.6007 111.422 18.8886 112.745 27.1803 117.189C32.4133 111.542 43.1731 106.087 50.906 108.439C52.247 108.848 61.0492 116.045 62.1999 117.461C65.3536 121.345 67.0585 126.631 66.8847 131.629Z" fill="#D3BCB2"/>
<path d="M66.8847 131.629C66.6152 139.384 57.7533 150.972 49.7985 151.898C44.067 152.565 38.5568 148.127 33.9237 145.423C29.9513 151.975 27.7032 156.784 19.0999 156.835C10.6767 156.884 -6.47836 148.434 -8.20869 139.505C-10.3384 128.516 -5.38827 121.396 3.97152 116.207C12.6007 111.422 18.8886 112.745 27.1803 117.189C32.4133 111.542 43.1731 106.087 50.906 108.439C52.247 108.848 61.0492 116.045 62.1999 117.461C65.3536 121.345 67.0585 126.631 66.8847 131.629Z" stroke="white" stroke-width="4"/>
<path d="M-0.497558 55.2587C4.02149 53.9331 11.4184 57.1632 12.8191 61.7161C16.2576 72.8919 2.96238 80.0848 -3.95023 71.4015C-7.24031 67.2692 -5.93651 56.8538 -0.497558 55.2587Z" fill="#D3BCB2"/>
<path d="M-0.497558 55.2587C4.02149 53.9331 11.4184 57.1632 12.8191 61.7161C16.2576 72.8919 2.96238 80.0848 -3.95023 71.4015C-7.24031 67.2692 -5.93651 56.8538 -0.497558 55.2587Z" stroke="white" stroke-width="4"/>
<path d="M19.8348 1.3897C25.6285 6.11054 17.5164 19.4865 10.9985 11.0253C5.9223 4.43518 15.1735 -2.4089 19.8348 1.3897Z" fill="#D3BCB2"/>
<path d="M19.8348 1.3897C25.6285 6.11054 17.5164 19.4865 10.9985 11.0253C5.9223 4.43518 15.1735 -2.4089 19.8348 1.3897Z" stroke="white" stroke-width="4"/>
<path d="M178.89 231.473C178.17 242.207 162.492 241.61 154.984 240.303C145.446 238.643 119.992 228.349 116.893 218.644C114.088 209.863 118.452 207 125.078 202.489C134.433 196.12 145.328 191.171 156.826 194.705C166.47 197.669 167.728 206.617 171.543 214.373C174.104 219.58 179.3 225.361 178.89 231.473Z" fill="#DDA38E"/>
<path d="M178.89 231.473C178.17 242.207 162.492 241.61 154.984 240.303C145.446 238.643 119.992 228.349 116.893 218.644C114.088 209.863 118.452 207 125.078 202.489C134.433 196.12 145.328 191.171 156.826 194.705C166.47 197.669 167.728 206.617 171.543 214.373C174.104 219.58 179.3 225.361 178.89 231.473Z" stroke="white" stroke-width="4"/>
<path d="M43.4636 156.763C54.6985 154.985 69.4675 159.353 71.7276 171.995C74.9063 189.78 64.3193 197.492 47.5527 196.623C42.0432 196.338 25.4917 185.117 23.5933 180.13C21.5924 174.873 26.4973 165.063 30.6835 161.798C33.5322 159.575 39.8844 157.329 43.4636 156.763Z" fill="#D3BCB2"/>
<path d="M43.4636 156.763C54.6985 154.985 69.4675 159.353 71.7276 171.995C74.9063 189.78 64.3193 197.492 47.5527 196.623C42.0432 196.338 25.4917 185.117 23.5933 180.13C21.5924 174.873 26.4973 165.063 30.6835 161.798C33.5322 159.575 39.8844 157.329 43.4636 156.763Z" stroke="white" stroke-width="4"/>
<path d="M217.405 232.872C219.651 237.653 220.028 249.73 213.75 251.552C209.143 252.889 196.279 252.005 191.486 250.566C181.965 247.708 183.262 240.702 184.523 232.373C185.454 226.221 186.998 224.637 192.323 221.458C198.216 217.94 201.915 216.115 207.728 221.038C209.637 222.655 216.402 230.738 217.405 232.872Z" fill="#DDA38E"/>
<path d="M217.405 232.872C219.651 237.653 220.028 249.73 213.75 251.552C209.143 252.889 196.279 252.005 191.486 250.566C181.965 247.708 183.262 240.702 184.523 232.373C185.454 226.221 186.998 224.637 192.323 221.458C198.216 217.94 201.915 216.115 207.728 221.038C209.637 222.655 216.402 230.738 217.405 232.872Z" stroke="white" stroke-width="4"/>
</g>
<defs>
<clipPath id="clip0_157_76">
<rect width="375" height="496" fill="white"/>
</clipPath>
</defs>
</svg>
