<svg width="1920" height="1241" viewBox="0 0 1920 1241" fill="none" xmlns="http://www.w3.org/2000/svg">
<g clip-path="url(#clip0_79_99)">
<g clip-path="url(#clip1_79_99)">
<path d="M55.0067 562.554C38.3406 573.571 30.1614 587.54 35.7197 607.682C40.2358 624.049 73.389 637.284 89.0581 635.97C105.062 634.628 108.548 625.352 114.99 612.58C124.005 616.941 134.904 624.401 145.475 622.327C160.144 619.45 174.955 596.598 174.331 582.126L228.003 599.156C223.961 603.954 215.813 619.063 215.51 625.077C214.924 636.698 230.227 655.417 237.71 664.158C241.746 668.873 246.631 674.715 251.278 678.708C263.786 689.455 280.595 694.661 292.917 705.556C281.239 714.913 273.534 720.874 280.028 736.81C287.204 754.421 336.07 769.885 354.061 771.59C368.224 772.933 397.489 771.769 397.272 751.688L407.885 752.545C406.748 768.23 405.35 781.457 423.484 785.394C432.613 787.375 456.682 787.154 465.062 783.997C476.482 779.696 474.027 757.274 469.153 748.702C477.811 744.63 476.885 733.233 478.879 726.367C497.06 743.966 523.539 772.912 528.428 798.361C531.676 815.262 513.441 825.361 499.509 828.465C423.18 845.469 313.112 820.362 239.695 795.55C156.575 767.46 56.1727 726.475 -10.6968 669.051C-34.7417 648.403 -85.5647 596.016 -42.3262 569.333C-16.6804 553.506 26.1098 560.996 55.0067 562.554ZM134.39 632.301C127.811 633.875 116.315 638.977 111.336 643.526C104.019 650.211 96.3143 669.18 100.801 678.673C105.058 687.679 137.49 706.159 147.785 705.891C179.115 705.075 197.699 689.186 189.202 656.547C183.161 633.347 155.041 627.362 134.39 632.301Z" fill="#EEDBD1"/>
<path d="M228.003 599.156C238.518 586.673 251.492 585.019 266.843 588.825C274.386 572.934 289.032 561.018 307.174 560.141C311.94 559.91 317.84 562.637 321.039 561.586C323.269 560.853 332.158 552.012 336.593 549.704C356.85 539.163 370.725 546.179 385.612 560.971C403.833 555.769 421.749 563.12 433.479 577.247C436.191 580.513 440.613 590.253 441.767 591.332C442.958 592.445 450.169 593.546 453.681 596.563C459.677 601.713 466.046 615.912 467.052 623.666C467.525 627.307 465.929 636.124 466.882 638.621C467.38 639.926 471.896 642.615 473.594 644.688C479.365 651.732 481.898 660.343 482.592 669.293C482.841 672.502 481.439 677.033 482.087 679.725C483.773 686.729 488.812 690.263 489.4 701.06C490.167 715.131 481.325 717.947 478.879 726.368C476.885 733.233 477.811 744.63 469.153 748.702C466.978 744.876 453.214 730.815 449.426 728.082C437.894 719.764 431.275 723.698 420.818 731.1C411.368 737.789 408.725 740.96 407.885 752.546L397.272 751.688C397.148 740.254 386.639 730.249 381.116 720.93C372.891 707.049 369.251 690.579 350.873 686.462C328.961 681.553 309.403 692.345 292.917 705.556C280.595 694.661 263.786 689.456 251.278 678.708C246.631 674.715 241.746 668.873 237.71 664.158C230.227 655.417 214.924 636.698 215.51 625.077C215.813 619.064 223.961 603.954 228.003 599.156ZM358.63 587.169C352.41 595.337 367.459 601.853 371.097 592.854C374.679 583.997 363.474 580.808 358.63 587.169ZM312.854 605.106C305.326 607.793 309.289 620.389 317.136 617.82C324.326 615.466 320.709 602.303 312.854 605.106ZM402.776 620.55C394.308 622.906 400.034 636.316 407.794 629.495C411.884 625.899 407.507 619.234 402.776 620.55ZM439.165 618.285C433.866 619.76 437.449 628.151 442.305 623.883C444.865 621.632 442.126 617.461 439.165 618.285Z" fill="#F3F2E5"/>
<path d="M228.003 599.156C238.518 586.673 251.492 585.019 266.843 588.825C274.386 572.934 289.032 561.018 307.174 560.141C311.94 559.91 317.84 562.637 321.039 561.586C323.269 560.853 332.158 552.012 336.593 549.704C356.85 539.163 370.725 546.179 385.612 560.971C403.833 555.769 421.749 563.12 433.479 577.247C436.191 580.513 440.613 590.253 441.767 591.332C442.958 592.445 450.169 593.546 453.681 596.563C459.677 601.713 466.046 615.912 467.052 623.666C467.525 627.307 465.929 636.124 466.882 638.621C467.38 639.926 471.896 642.615 473.594 644.688C479.365 651.732 481.898 660.343 482.592 669.293C482.841 672.502 481.439 677.033 482.087 679.725C483.773 686.729 488.812 690.263 489.4 701.06C490.167 715.131 481.325 717.947 478.879 726.368C476.885 733.233 477.811 744.63 469.153 748.702C466.978 744.876 453.214 730.815 449.426 728.082C437.894 719.764 431.275 723.698 420.818 731.1C411.368 737.789 408.725 740.96 407.885 752.546L397.272 751.688C397.148 740.254 386.639 730.249 381.116 720.93C372.891 707.049 369.251 690.579 350.873 686.462C328.961 681.553 309.403 692.345 292.917 705.556C280.595 694.661 263.786 689.456 251.278 678.708C246.631 674.715 241.746 668.873 237.71 664.158C230.227 655.417 214.924 636.698 215.51 625.077C215.813 619.064 223.961 603.954 228.003 599.156ZM358.63 587.169C352.41 595.337 367.459 601.853 371.097 592.854C374.679 583.997 363.474 580.808 358.63 587.169ZM312.854 605.106C305.326 607.793 309.289 620.389 317.136 617.82C324.326 615.466 320.709 602.303 312.854 605.106ZM402.776 620.55C394.308 622.906 400.034 636.316 407.794 629.495C411.884 625.899 407.507 619.234 402.776 620.55ZM439.165 618.285C433.866 619.76 437.449 628.151 442.305 623.883C444.865 621.632 442.126 617.461 439.165 618.285Z" stroke="white" stroke-width="7"/>
<path d="M279.532 1089.95C274.23 1079.13 280.43 1066.55 292.716 1065.46C298.289 1064.96 336.976 1089.02 342.941 1092.56C374.638 1111.32 402.525 1131.94 435.811 1149.54C437.726 1150.56 440.439 1152.41 441.814 1152.9C445.077 1154.07 456.283 1147.95 461.698 1146.99C473.548 1144.88 492.372 1144.94 510.441 1156.37C531.195 1169.49 555.979 1216.28 526.473 1230.84C500.517 1243.65 467.936 1233.61 449.426 1212.85C438.646 1200.75 436.676 1186.33 434.057 1170.9C412.272 1158.14 388.478 1148.63 365.603 1137.71C359.732 1134.91 352.858 1131.88 346.981 1129.09C333.958 1122.92 285.984 1103.1 279.532 1089.95Z" fill="#EEDBD1"/>
<path d="M351.784 963.796C351.601 965.835 354.822 969.389 356.635 970.682C361.131 973.888 374.369 977.56 385.806 980.899C391.742 982.633 396.836 984.189 400.685 985.752C405.218 987.593 409.875 991.217 408.612 995.604C407.637 998.986 402.982 1000.05 397.794 999.158C391.493 998.074 384.503 995.944 381.511 995.256C375.719 993.925 354.192 987.001 350.246 988.068C347.639 988.772 344.702 990.139 346.022 993.284C348.626 999.487 374.548 1005.08 381.68 1007.93C383.839 1008.79 391.137 1011.6 395.98 1015.02C400.935 1018.53 403.331 1022.67 395.976 1025.26C391.25 1026.92 338.48 1014.86 331.627 1011.82C324.872 1008.82 315.223 1001.81 311.045 995.67C306.183 988.529 305.985 979.921 299.839 974.232L166.647 947.24C166.647 947.24 163.938 946.531 163.052 946.254C162.075 945.948 160.631 945.481 159.246 944.881C149.511 940.664 134.431 933.457 138.241 922.304C140.94 914.4 148.434 913.967 155.478 913.445C173.238 912.13 222.935 930.1 242.429 936.404C262.85 943.006 282.787 951.451 303.504 957.208C311.755 957.927 309.96 953.953 315.33 950.11C336.761 934.774 374.717 944.279 397.096 953.78C402.127 955.916 421.317 964.624 410.067 969.865C404.365 972.521 382.809 964.641 375.29 963.148C371.163 962.328 352.315 957.892 351.784 963.796Z" fill="#EEDBD1"/>
<path d="M174.331 582.126C174.955 596.598 160.144 619.45 145.474 622.327C134.904 624.401 124.005 616.941 114.99 612.58C108.548 625.352 105.062 634.627 89.058 635.97C73.3889 637.284 40.2357 624.048 35.7196 607.682C30.1613 587.54 38.3405 573.571 55.0066 562.554C70.3719 552.398 82.266 553.947 98.3425 561.014C107.262 549.745 126.495 538.031 141.228 541.287C143.783 541.852 161.209 553.969 163.556 556.438C169.989 563.208 173.929 572.798 174.331 582.126Z" fill="#D3BCB2"/>
<path d="M174.331 582.126C174.955 596.598 160.144 619.45 145.474 622.327C134.904 624.401 124.005 616.941 114.99 612.58C108.548 625.352 105.062 634.627 89.058 635.97C73.3889 637.284 40.2357 624.048 35.7196 607.682C30.1613 587.54 38.3405 573.571 55.0066 562.554C70.3719 552.398 82.266 553.947 98.3425 561.014C107.262 549.745 126.495 538.031 141.228 541.287C143.783 541.852 161.209 553.969 163.556 556.438C169.989 563.208 173.929 572.798 174.331 582.126Z" stroke="white" stroke-width="7"/>
<path d="M37.8432 449.774C46.0611 446.651 60.2961 451.589 63.5637 459.859C71.585 480.159 47.8854 495.475 33.7603 480.318C27.0375 473.105 27.9524 453.532 37.8432 449.774Z" fill="#D3BCB2"/>
<path d="M37.8432 449.774C46.0611 446.651 60.2961 451.589 63.5637 459.859C71.585 480.159 47.8854 495.475 33.7603 480.318C27.0375 473.105 27.9524 453.532 37.8432 449.774Z" stroke="white" stroke-width="7"/>
<path d="M67.8655 346.569C79.3331 354.514 66.1771 380.585 52.8189 365.784C42.4152 354.256 58.6392 340.176 67.8655 346.569Z" fill="#D3BCB2"/>
<path d="M67.8655 346.569C79.3331 354.514 66.1771 380.585 52.8189 365.784C42.4152 354.256 58.6392 340.176 67.8655 346.569Z" stroke="white" stroke-width="7"/>
<path d="M397.271 751.688C397.489 771.769 368.224 772.933 354.061 771.59C336.07 769.885 287.204 754.421 280.028 736.81C273.534 720.874 281.239 714.913 292.917 705.556C309.403 692.345 328.961 681.553 350.873 686.462C369.251 690.579 372.891 707.049 381.116 720.93C386.638 730.249 397.148 740.254 397.271 751.688Z" fill="#DDA38E"/>
<path d="M397.271 751.688C397.489 771.769 368.224 772.933 354.061 771.59C336.07 769.885 287.204 754.421 280.028 736.81C273.534 720.874 281.239 714.913 292.917 705.556C309.403 692.345 328.961 681.553 350.873 686.462C369.251 690.579 372.891 707.049 381.116 720.93C386.638 730.249 397.148 740.254 397.271 751.688Z" stroke="white" stroke-width="7"/>
<path d="M134.39 632.301C155.041 627.362 183.161 633.347 189.202 656.547C197.699 689.186 179.115 705.075 147.785 705.891C137.49 706.159 105.058 687.679 100.801 678.673C96.3143 669.18 104.019 650.211 111.336 643.526C116.315 638.977 127.811 633.875 134.39 632.301Z" fill="#D3BCB2"/>
<path d="M134.39 632.301C155.041 627.362 183.161 633.347 189.202 656.547C197.699 689.186 179.115 705.075 147.785 705.891C137.49 706.159 105.058 687.679 100.801 678.673C96.3143 669.18 104.019 650.211 111.336 643.526C116.315 638.977 127.811 633.875 134.39 632.301Z" stroke="white" stroke-width="7"/>
<path d="M469.153 748.702C474.027 757.274 476.482 779.696 465.062 783.997C456.682 787.154 432.613 787.375 423.484 785.394C405.35 781.457 406.748 768.23 407.885 752.545C408.725 740.96 411.368 737.789 420.818 731.1C431.275 723.698 437.893 719.764 449.426 728.082C453.214 730.814 466.978 744.876 469.153 748.702Z" fill="#DDA38E"/>
<path d="M469.153 748.702C474.027 757.274 476.482 779.696 465.062 783.997C456.682 787.154 432.613 787.375 423.484 785.394C405.35 781.457 406.748 768.23 407.885 752.545C408.725 740.96 411.368 737.789 420.818 731.1C431.275 723.698 437.893 719.764 449.426 728.082C453.214 730.814 466.978 744.876 469.153 748.702Z" stroke="white" stroke-width="7"/>
</g>
<path d="M1889.59 456.719C1946.56 456.732 1951.26 504.28 1934.52 548.225C1905.94 623.262 1823.23 708.128 1737.14 702.768C1653.84 697.575 1689.42 608.613 1719.85 565.689C1753.22 518.606 1829.67 456.706 1889.59 456.719ZM1880.11 547.695C1883.83 553.431 1888.15 544.595 1889.44 541.121C1899.61 513.852 1882.08 495.471 1854.32 498.933C1850.99 499.346 1833.02 504.397 1831.13 505.973C1830.11 506.825 1829.63 508.957 1829.62 510.326C1831.04 516.888 1843.83 508.814 1848.96 507.652C1858.54 505.495 1869.82 504.5 1877.88 511.23C1892.28 523.23 1877.57 543.794 1880.1 547.695H1880.11ZM1743.04 607.102C1737.5 607.98 1733.58 629.475 1733.59 634.435C1733.62 657.131 1754.88 660.709 1772.87 656.743C1776.02 656.046 1798.31 648.734 1786.23 645.118C1780.06 643.27 1763.76 655.271 1750.19 648.889C1736.61 642.508 1741.94 621.414 1747.59 610.693L1743.04 607.102Z" fill="#EEDBD1"/>
<path d="M1839.2 250C1870.21 234.938 1904.49 253.707 1894.27 290.34C1887.61 314.212 1852.29 329.17 1829.27 326.69C1812.18 370.97 1775.1 401.08 1725.96 399.207C1704.77 398.394 1675.27 391.005 1657.84 378.695C1621.1 352.744 1591.84 262.4 1629.69 228.273C1677.67 185.026 1788.78 176.074 1831.47 230.262C1836.51 236.656 1838.7 241.642 1839.2 249.987V250ZM1726.36 216.621C1701.21 218.339 1670.46 225.819 1651.44 242.999C1641.12 252.299 1640.31 258.977 1651.44 268.252C1679.38 291.568 1745.81 280.64 1777.29 267.567C1801.39 257.556 1824.8 241.978 1787.52 226.387C1769.09 218.675 1746.26 215.265 1726.38 216.621H1726.36ZM1834.98 306.306C1847.19 304.73 1856.25 302.612 1865.26 293.673C1890.67 268.446 1851.48 259.83 1840.61 273.238C1838.98 275.24 1833.91 304.782 1834.98 306.306Z" fill="#EEDBD1"/>
<path d="M1625.99 860.022C1635.12 858.405 1640.3 858.548 1648.23 863.818C1658.91 870.923 1663.5 880.493 1658.94 893.63C1674.28 904.512 1674.25 933.648 1657.96 943.703C1666.13 971.099 1647.89 990.39 1622.07 986.623C1618.56 1009.92 1595.93 1016.9 1576.48 1010.76C1570.84 1008.98 1568.58 1003.97 1564.16 1000.39C1549.9 1005.96 1536.97 1004.69 1528.81 990.009C1522.18 978.09 1522.07 965.905 1523.61 952.511C1505.74 945.025 1501.22 920.036 1515.72 906.253C1505.59 888.388 1516.64 869.211 1536.4 872.55C1536.93 868.821 1535.23 865.492 1535.49 861.801C1536.91 841.492 1569.54 824.722 1580.7 845.592C1585.25 842.462 1589.77 839.038 1595.37 838.429C1606.68 837.211 1623.89 847.237 1625.99 860.022ZM1568.23 881.045C1560.27 882.947 1561.21 898.643 1571.71 896.169C1580.02 894.21 1578.26 878.638 1568.23 881.045ZM1603.27 885.163C1593.62 887.427 1598.58 902.457 1606.19 898.719C1613.5 895.142 1611.09 883.328 1603.27 885.163ZM1553.69 896.635C1549.57 892.231 1542.21 899.346 1546.05 904.255C1550.82 910.362 1558.42 901.687 1553.69 896.635ZM1619.33 911.123C1616.06 914.053 1617.45 923.984 1623.3 922.148C1631.13 919.694 1625.06 905.996 1619.33 911.123ZM1578.56 915.384C1566.59 927.922 1582.41 946.794 1594.83 934.276C1605.76 923.242 1588.22 905.244 1578.56 915.384ZM1544.91 913.187C1531.41 915.461 1539.65 937.948 1550.54 927.522C1556.54 921.786 1552.21 911.96 1544.91 913.187ZM1617.87 939.051C1611.61 940.079 1609.84 951.579 1616.9 953.215C1627.22 955.622 1626.03 937.72 1617.87 939.051ZM1557.47 944.274C1550.6 945.073 1549.74 957.467 1557.32 957.486C1564.9 957.505 1564.35 943.475 1557.47 944.274ZM1583.33 959.865C1579.52 963.926 1583.95 974.009 1590.47 969.025C1596.82 964.174 1588.46 954.404 1583.33 959.865Z" fill="#EEDBD1"/>
<path d="M1362.06 1013.9C1364.41 1029.74 1354.37 1042.86 1340.77 1047.73C1332.98 1050.51 1326.14 1049.33 1319.76 1043.93C1301.15 1061.95 1270.69 1051.04 1271.42 1023.08C1245.58 1026.6 1243.28 984.774 1263.63 976.422C1262.38 973.53 1260.51 970.591 1259.97 967.385C1257.87 955.133 1258.59 938.772 1270.76 932.703C1279.44 928.375 1286.34 932.427 1294.74 934.948C1297.65 921.63 1318.37 913.478 1329.37 917.274C1336.01 919.566 1339.15 925.188 1343.09 930.715C1357.56 926.367 1369.43 936.441 1372.38 951.28C1372.83 953.554 1372.25 956.065 1372.8 958.091C1373.08 959.128 1376.76 963.133 1377.89 965.112C1390.19 986.6 1384.44 1005.78 1362.05 1013.9H1362.06ZM1334.38 951.69C1329.48 953.183 1327.35 964.769 1334.16 965.121C1345.21 965.682 1342.35 949.264 1334.38 951.69ZM1305.18 956.874C1301.97 957.844 1300.57 964.798 1305.95 965.112C1313.59 965.559 1310.65 955.219 1305.18 956.874ZM1287.72 965.283C1279.59 957.083 1270.28 981.207 1284.53 978.486C1289.83 977.478 1291.33 968.926 1287.72 965.283ZM1341.18 976.622C1336.83 978.01 1338 986.41 1342.17 987.685C1350.43 990.205 1351.21 973.416 1341.18 976.622ZM1311.04 977.639C1301.33 979.884 1301.63 1000.3 1315.49 996.95C1326.45 994.305 1321.17 975.299 1311.04 977.639ZM1279.43 998.985C1284.91 1004.75 1290.51 993.363 1285.05 990.396C1280.29 987.808 1276.37 995.751 1279.43 998.985ZM1326.59 1008.75C1322.11 1010.14 1322.08 1016.25 1326.59 1017.72C1334.77 1020.38 1334.91 1006.14 1326.59 1008.75ZM1298.33 1009.82C1289.04 1010.91 1290.04 1023.79 1300.08 1022.06C1307.1 1020.84 1304.4 1009.11 1298.33 1009.82Z" fill="#EEDBD1"/>
<path d="M224.6 30.0828C237.66 33.4928 245.07 43.1473 244.77 57.7569C244.59 66.4311 238.6 72.0788 233.31 77.5455C234.96 90.0771 236.34 97.675 226.54 106.232C217.61 114.032 209.76 111.134 205.06 114.128C204.64 114.395 202.56 119.264 201.01 120.852C188.88 133.288 160.5 131.444 155.72 111.571C136.78 117.549 122.41 101.319 129.05 81.3604C129.77 79.1865 132.12 77.684 131.86 75.0626C125.45 71.8977 122.58 62.1366 122.07 55.0822C120.97 40.0144 133.05 26.4277 146.96 25.522C146.28 7.32121 155.68 -3.3776 173.27 0.575843C176.93 1.39637 181.56 5.6695 183.61 5.88262C186.25 6.15968 191.32 3.13333 194.56 2.4833C213.56 -1.32096 224.05 10.2623 224.61 30.0828H224.6ZM173.21 33.9297C172.51 46.8237 188.07 38.1709 179.02 32.7149C177.14 31.5853 176.18 31.5853 174.53 32.2567C174.19 32.3952 173.23 33.5354 173.21 33.9297ZM196.9 39.7267C188.59 41.4103 194.6 50.7665 201.6 47.1434C204.48 45.172 202.17 38.6504 196.9 39.7267ZM158.91 52.1944C160.99 50.6066 159.87 44.1064 155.22 44.085C146.66 44.0424 153.84 56.0519 158.91 52.1944ZM178.34 51.3845C166.62 54.1445 168.28 77.5987 182.72 72.3239C195.89 67.518 190.46 48.5287 178.34 51.3845ZM147.73 60.5915C143.19 62.1792 147.55 72.0682 152.5 66.8467C155.89 63.2768 152.41 58.9611 147.73 60.5915ZM206.83 71.8977C209.65 60.8472 195.15 64.4703 198.8 72.0575C200.77 76.1388 203.88 72.9633 206.83 71.8977ZM159.78 81.5735C156.05 82.767 154.92 89.2992 160.66 89.5869C169.08 90.0025 168.95 78.643 159.78 81.5735ZM186.98 83.8326C183.49 84.5253 182.83 91.4411 187.04 92.7625C196.52 95.7462 192.64 82.7137 186.98 83.8326Z" fill="#EEDBD1"/>
<path d="M159.78 81.5735C168.95 78.6431 169.08 90.0026 160.66 89.587C154.92 89.2993 156.05 82.767 159.78 81.5735Z" fill="white"/>
<path d="M1754.8 1068.64C1755.03 1069.01 1760.43 1070.67 1762.4 1072.47C1773.91 1083.04 1771.77 1098.96 1759.85 1108C1758.13 1109.3 1752.43 1111.89 1752.18 1112.27C1751.67 1113.08 1751.28 1118.5 1750.54 1120.9C1746.77 1133.29 1731.93 1140.02 1720.62 1135.64C1718.99 1135 1715.76 1132.39 1715.25 1132.36C1714.12 1132.29 1705.35 1137.29 1700.65 1137.29C1693.73 1137.29 1682.41 1130.65 1680.92 1122.98C1680.05 1118.54 1681.99 1111.84 1681.54 1109.93C1681.25 1108.71 1679.51 1107.74 1678.89 1106.47C1674.94 1098.39 1676.26 1087.88 1683.29 1082.38C1684.15 1081.71 1686.13 1081.48 1686.41 1081.08C1687.41 1079.6 1685.3 1072.87 1685.78 1069.55C1687.21 1059.76 1696.78 1053.42 1705.56 1053.18C1709.26 1053.09 1715.27 1056.62 1716.97 1056.18C1718.68 1055.74 1722.3 1052 1725.66 1050.84C1736.39 1047.13 1750.33 1050.05 1754 1062.75C1754.5 1064.49 1754.46 1068.11 1754.8 1068.63V1068.64ZM1732.15 1074.88C1735.53 1069.66 1725.42 1064.36 1725.38 1072.41C1725.35 1077.5 1731.2 1076.36 1732.15 1074.88ZM1713.55 1079.92C1717.11 1076.26 1715.86 1070.51 1710.53 1069.97C1701.73 1073.88 1708.51 1085.1 1713.55 1079.92ZM1718.39 1083.45C1707.13 1085.32 1711.24 1110.28 1723.59 1100.46C1731.15 1094.44 1724.3 1082.46 1718.39 1083.45ZM1740.9 1084.48C1738.57 1083.96 1734.88 1083.95 1733.7 1086.4C1730.54 1092.92 1745.72 1094.28 1740.9 1084.48ZM1693.99 1092.76C1691.23 1093.73 1689.83 1099.97 1694.29 1101.51C1702.59 1104.37 1701.91 1089.99 1693.99 1092.76ZM1735.95 1115.18C1739.13 1111.76 1736.42 1103.83 1731.31 1106.6C1728.24 1108.27 1728.66 1115.49 1731.99 1116.34C1733.2 1116.52 1735.14 1116.07 1735.95 1115.19V1115.18ZM1707.62 1111.51C1702.21 1112.1 1703.33 1120.13 1708.39 1119.64C1713.37 1119.14 1712.79 1110.95 1707.62 1111.51Z" fill="#EEDBD1"/>
<path d="M589.498 259.001C589.758 259.417 595.808 261.282 598.008 263.296C610.908 275.135 608.508 292.963 595.148 303.097C593.228 304.557 586.838 307.455 586.558 307.881C585.988 308.787 585.548 314.861 584.728 317.547C580.498 331.421 563.878 338.965 551.208 334.053C549.378 333.339 545.758 330.419 545.188 330.387C543.928 330.302 534.098 335.907 528.838 335.907C521.078 335.907 508.398 328.469 506.728 319.88C505.758 314.904 507.928 307.391 507.428 305.26C507.108 303.896 505.148 302.798 504.458 301.381C500.038 292.334 501.518 280.559 509.388 274.4C510.348 273.643 512.568 273.387 512.878 272.94C513.998 271.277 511.638 263.743 512.178 260.024C513.778 249.059 524.498 241.952 534.338 241.685C538.478 241.579 545.208 245.532 547.118 245.042C549.028 244.552 553.088 240.364 556.858 239.064C568.878 234.908 584.488 238.179 588.598 252.405C589.158 254.355 589.118 258.405 589.498 258.991V259.001ZM564.128 265.992C567.908 260.142 556.578 254.206 556.538 263.221C556.508 268.933 563.058 267.654 564.128 265.992ZM543.288 271.64C547.278 267.537 545.878 261.101 539.898 260.493C530.048 264.873 537.638 277.437 543.288 271.64ZM548.708 275.593C536.098 277.692 540.698 305.644 554.528 294.646C563.008 287.901 555.328 274.485 548.708 275.593ZM573.928 276.744C571.318 276.169 567.178 276.158 565.858 278.897C562.318 286.207 579.328 287.72 573.928 276.744ZM521.378 286.026C518.278 287.112 516.718 294.103 521.708 295.829C531.008 299.026 530.248 282.925 521.378 286.026ZM568.378 311.142C571.938 307.306 568.908 298.419 563.178 301.53C559.738 303.395 560.208 311.483 563.948 312.442C565.298 312.645 567.468 312.133 568.378 311.153V311.142ZM536.648 307.029C530.578 307.69 531.838 316.683 537.508 316.129C543.088 315.575 542.438 306.4 536.648 307.029Z" fill="#EEDBD1"/>
</g>
<defs>
<clipPath id="clip0_79_99">
<rect width="1920" height="1241" fill="white"/>
</clipPath>
<clipPath id="clip1_79_99">
<rect width="554.634" height="947.825" fill="white" transform="translate(-92 362.593) rotate(-7.9046)"/>
</clipPath>
</defs>
</svg>
