<svg width="1919" height="663" viewBox="0 0 1919 663" fill="none" xmlns="http://www.w3.org/2000/svg">
<g clip-path="url(#clip0_88_19)">
<path d="M250.699 60.5585C234.982 79.881 223.952 112.892 235.502 136.673C238.596 143.051 250.267 155.056 258.061 152.668C261.006 151.761 265.684 146.979 267.876 144.608C284.619 126.553 280.005 93.2399 274.862 71.153C298.803 81.9297 323.645 90.9951 346.004 104.947C346.962 106.674 345.947 106.205 345.336 106.892C340.588 112.19 335.23 116.796 330.958 122.567C319.11 138.575 308.35 176.168 320.837 193.625C331.081 207.945 340.961 197.507 349.596 187.725C358.371 177.797 370.217 152.38 370.343 139.121C370.406 133.036 368.81 127.123 368.39 121.127C368.297 119.778 366.753 118.73 369.069 118.424L438.104 168.128C431.826 175.914 427.911 187.245 425.586 197.037C421.137 215.785 420.664 261.08 439.148 271.743C448.04 276.869 454.702 274.905 460.299 266.674C476.838 242.339 465.9 210.176 457.666 184.747C458.971 184.603 460.067 185.68 461.04 186.397C473.101 195.287 488.59 210.813 499.93 221.423C504.676 225.87 543.67 262.661 542.192 265.552C535.077 267.967 530.148 274.012 525.934 279.876C511.363 300.139 495.735 342.323 512.888 364.447C517.001 369.748 520.058 368.517 525.559 366.008C554.647 352.775 569.337 321.286 563.267 290.345C563.861 290.045 564.399 290.508 564.928 290.852C569.101 293.525 582.798 312.563 586.438 317.753C597.423 333.384 606.579 350.295 616.808 366.418C612.902 407.352 633.331 463.177 663.999 490.814C675.101 500.82 688.31 507.837 690.853 487.131C695.887 446.203 678.035 407.457 651.025 377.578C643.651 369.427 631.812 364.379 626.369 358.233C617.273 347.974 607.23 326.24 598.587 313.675C591.189 302.924 582.473 293.243 575.024 282.563C591.086 292.113 609.835 295.947 628.292 298.011C635.352 298.799 646 300.443 652.748 298.545C686.451 289.084 634.57 264.234 624.155 259.889C600.903 250.198 576.134 243.42 552.858 257.678C532.721 233.873 509.155 213.587 486.475 192.368L502.436 195.782C522.66 197.835 542.145 198.501 561.365 190.309C604.991 171.719 553.681 152.93 533.15 148.441C510.609 143.517 486.025 144.841 464.105 152.241C460.351 153.506 449.958 160.241 446.82 159.541C425.048 141.508 401.494 125.783 378.089 109.973L416.223 109.28C432.751 106.935 457.85 97.2496 468.097 83.3882C478.013 69.9769 464.228 66.5799 453.722 63.7362C418.94 54.3208 394.433 64.7867 368.407 87.9944C365.169 90.8847 363.095 95.7438 358.424 97.1978C335.413 84.0111 311.258 73.2931 286.957 62.7331C302.665 57.8342 316.185 56.0515 329.472 45.4556C335.078 40.9851 354.788 19.7437 354.965 13.1944C355.242 2.84969 339.236 0.967712 331.19 1.2098C300.807 2.10901 273.839 26.519 257.267 50.1932C243.915 45.6623 229.518 41.7144 215.455 40.0545C207.356 39.1023 172.244 36.7507 166.638 39.6373C161.819 42.1254 162.942 49.8929 168.12 51.0637C196.567 49.055 223.724 51.1727 250.721 60.542L250.699 60.5585Z" fill="#EEDBD1"/>
<path d="M93.2074 160.793L117.202 177.802L150.16 205.732C142.149 209.19 136.862 214.454 131.664 221.165C114.655 243.161 106.124 269.871 117.465 296.806C121.928 307.41 131.343 319.176 139.529 303.85C143.584 296.263 149.636 281.295 152.824 272.933C159.59 255.172 162.185 237.602 162.027 218.581C163.697 218.116 163.975 219.239 164.956 219.967C169.43 223.279 178.974 233.879 183.214 238.5C196.995 253.527 209.417 270.079 221.929 286.158L221.442 287.695C192.215 310.836 186.988 364.049 197.09 397.615C202.958 417.119 214.518 411.989 220.891 396.563C232.938 367.392 232.699 333.549 232.758 302.481C240.745 313.918 249.121 325.25 256.309 337.216C260.714 344.534 275.011 368.495 276.75 375.24C277.705 378.953 275.998 389.641 276.567 395.075C278.552 413.93 290.641 440.026 303.259 454.15C310.303 462.024 330.017 477.601 340.018 480.119C354.552 483.773 349.603 465.958 347.889 458.156C342.682 434.475 329.775 410.294 312.827 392.971C306.945 386.958 294.012 379.492 289.87 374.381C284.347 367.589 274.75 344.28 269.186 334.709C265.593 328.531 261.34 322.702 257.703 316.56L280.921 332.401C296.816 342.087 313.324 350.305 331.917 353.477C347.73 356.166 357.968 354.541 347.923 336.89C331.521 308.065 281.545 282.024 248.824 280.911C243.732 280.737 238.882 281.659 233.856 281.688C218.209 260.727 201.98 239.972 183.388 221.587C184.116 220.118 185.728 221.82 186.622 222.177C212.97 232.793 235.405 246.597 265.444 240.813C285.33 236.98 282.248 228.11 268.967 217.649C250.741 203.289 219.364 196.45 196.628 193.078C183.386 191.116 170.125 190.556 157.386 195.254L117.933 163.259C116.475 161.686 120.143 162.188 120.81 162.247C136.548 163.73 153.535 165.509 169.313 164.3C174.066 163.939 187.796 162.394 190.67 158.762C197.129 150.599 184.198 145.185 178.725 142.628C152.982 130.598 114.456 123.782 86.3351 128.03C82.5532 128.605 72.8676 132.253 70.9831 132.163C67.0986 131.975 41.4666 120.174 34.1365 118.042C28.4937 116.395 10.5444 111.48 5.65963 111.968C-0.625823 112.597 -1.64245 120.706 4.06693 123.578C24.1299 128.49 45.9711 132.527 63.4251 143.934C61.1675 153.647 57.267 162.883 55.9293 172.881C53.4255 191.559 54.8506 205.521 64.1279 221.997C67.4589 227.914 76.3988 240.958 83.0224 242.819C92.6723 245.54 93.8934 238.421 95.7618 231.247C101.99 207.341 100.683 184.229 93.2077 160.811L93.2074 160.793Z" fill="#EEDBD1"/>
<path d="M38.195 276.971C39.6787 277.486 40.8669 280.324 41.6739 281.731C50.8353 297.693 59.1006 314.196 66.2554 331.172C58.8712 341.261 50.2967 350.849 45.7779 362.716C39.9788 377.946 37.5245 408.684 43.5602 423.691C56.0965 454.859 80.6905 403.933 83.3584 390.394C84.4236 384.966 83.9765 380.382 84.4976 375.319C84.6417 373.958 84.9978 372.53 86.3984 373.855C97.8626 399.279 106.549 425.801 114.767 452.447L114.532 453.668C87.4173 474.284 71.8316 502.791 67.3908 536.629C66.3766 544.383 64.8455 567.245 75.971 568.562C94.5371 570.757 117.537 539.691 123.852 524.514C125.512 520.532 125.889 515.392 128.598 512.465L134.085 548.637C114.539 570.35 121.074 604.603 127.179 630.763C128.238 635.309 133.855 656.647 136.667 658.381C147.4 665.007 157.896 640.394 160.101 632.68C165.613 613.361 162.329 576.679 153.145 558.505C151.395 555.047 147.714 551.898 146.911 549.195C143.978 539.292 144.465 525.455 141.25 515.149C148.842 523.928 165.921 546.986 178.21 547.332C188.064 547.606 187.737 537.381 187.005 530.307C185.143 512.321 169.501 483.757 157.819 469.865C150.122 460.715 138.454 449.522 126.457 447.173L107.054 391.883L119.496 400.166C154.709 420.701 142.461 387.307 132.318 369.133C120.991 348.84 99.7558 327.253 76.2544 322.758C73.3507 317.384 71.3172 311.515 68.5721 306.076C63.9386 296.896 56.6005 285.99 52.7018 277.17C52.4518 276.606 52.4947 275.54 53.1465 275.732C59.1551 279.434 66.8036 283.94 73.8972 284.78C91.2439 286.828 96.2942 281.745 87.1564 266.111C75.8282 246.724 47.5583 232.954 25.7059 231.236C18.0928 219.855 10.9746 207.843 2.66024 196.972C-10.0202 180.407 -24.8603 166.706 -43.699 157.304C-49.0137 154.647 -66.092 146.332 -63.6826 159.229C-62.9447 163.194 -46.6953 169.872 -42.2155 172.526C-32.8073 178.084 -23.9671 184.15 -16.5816 192.285C-4.4023 205.697 5.18846 222.318 15.0279 237.469C15.7025 240.388 10.4193 247.322 9.15204 250.418C2.24642 267.32 -0.621127 284.059 4.06431 301.995C6.24016 310.33 12.5499 323.796 23.3391 317.33C31.8879 312.211 37.8464 286.658 38.1954 276.989L38.195 276.971Z" fill="#EEDBD1"/>
</g>
<defs>
<clipPath id="clip0_88_19">
<rect width="1919" height="663" fill="white"/>
</clipPath>
</defs>
</svg>
