<svg width="960" height="598" viewBox="0 0 960 598" fill="none" xmlns="http://www.w3.org/2000/svg">
<path d="M691.75 159.474C708.606 158.008 740.44 170.698 741.723 191.586C743.01 212.546 731.414 230.517 710.772 231.47C704.067 231.779 697.918 227.761 691.336 231.845C689.023 233.281 687.225 237.197 684.217 236.734C679.806 236.058 684.398 226.539 680.955 223.471C668.042 213.128 654.152 204.786 659.86 184.987C663.851 171.14 678.369 160.637 691.75 159.474Z" fill="#EEDBD1"/>
<path d="M719.547 118.196C719.489 118.867 720.357 119.121 720.63 118.506C720.878 117.943 721 117.195 721.171 116.69C727.901 97.0663 732.072 75.7358 739.13 55.9538C740.732 51.4608 744.721 39.0166 750.144 39.3246C753.489 39.5138 754.476 43.8284 754.665 46.8343C755.336 57.3649 749.965 74.2141 746.758 84.5479C741.765 100.635 734.829 115.995 729.899 132.104C729.746 132.596 730.277 133.008 730.682 132.714C731.496 132.127 732.225 131.275 732.823 130.569C740.328 121.622 746.748 108.721 753.559 98.8131C762.355 86.0191 774.983 67.5263 785.487 56.779C797.301 44.6892 801.04 55.2434 795.503 67.687C790.934 77.9447 782.532 87.9552 776.428 97.3176C766.991 111.778 758.474 125.556 747.777 139.152C743.993 143.958 730.126 161.924 725.337 162.733C721.353 163.406 718.931 160.19 715.513 158.692C712.051 157.176 707.814 156.14 703.982 155.792C703.316 155.733 702.753 155.247 702.565 154.571C702.359 153.832 702.079 153.103 702.033 152.339C701.25 138.957 704.537 122.167 704.66 108.241C704.854 86.8809 703.791 65.2681 703.876 43.8198C703.897 38.4867 705.655 24.6581 713.396 27.6459C719.923 30.1666 719.331 49.9575 719.605 56.2086C720.154 68.7107 720.073 81.3102 720 93.8475C719.952 101.996 720.256 110.03 719.547 118.196ZM709.339 36.894C708.156 37.1799 707.831 38.6579 707.959 39.951C710.069 61.4142 710.106 84.1745 710.209 105.759C710.215 107.42 710.704 108.995 710.693 110.646C710.602 120.736 709.249 131.127 709.014 141.272C709.916 145.24 712.239 144.319 712.755 140.546C715.56 120.063 713.469 98.5963 713.662 78.0837L712.319 38.6214C711.828 37.2297 710.702 36.5706 709.343 36.8991L709.339 36.894ZM747.882 46.8788C744.774 47.7484 745.581 52.4713 745.076 54.834C742.651 66.2591 738.48 77.1181 735.186 88.2219C729.961 105.821 725.499 123.779 718.019 140.483C717.63 141.346 717.688 142.365 718.197 143.151C718.556 143.702 718.98 144.223 719.319 144.258C720.121 144.339 720.934 142.842 721.548 141.791C728.02 130.698 731.507 112.364 735.382 99.7594C740.431 83.3533 746.174 67.2099 749.996 50.3794C750.458 49.0348 749.359 46.4707 747.877 46.8833L747.882 46.8788ZM790.901 58.0926C788.97 58.6278 785.894 65.8496 784.564 67.9996C770.609 90.4962 752.742 122.399 733.731 139.867C731.842 141.603 725.178 144.154 727.899 147.329C728.103 147.568 728.38 147.729 728.678 147.78C729.972 147.997 730.515 147.22 731.495 146.441C750.456 131.338 766.102 104.604 778.732 83.637C783.397 75.8934 788.685 68.5431 792.938 60.5102C793.293 59.2988 791.897 57.8148 790.897 58.0923L790.901 58.0926Z" fill="#D1EDD1"/>
<path d="M376.769 447.402C377.914 447.659 378.3 447.019 378.981 446.23C380.688 444.241 384.589 436.355 387.342 437.216C391.088 439.564 388.648 444.403 388.508 447.773C387.872 463.248 389.41 470.644 400.28 480.941C411.78 491.834 424.012 492.876 428.089 511.84C431.85 529.312 427.805 542.786 417.535 556.177C412.464 562.791 405.822 564.844 398.091 565.692C399.706 567.267 401.59 569.402 403.264 570.787C404.471 571.79 406.933 571.944 406.93 573.96C406.93 578.144 398.654 574.821 396.619 573.972C392.471 572.244 387.242 569.26 382.885 568.198C376.534 566.651 378.694 571.162 378.201 575.508C378.072 576.656 377.314 579.525 376.346 579.833C371.228 581.459 370.952 570.748 370.885 567.263C369.796 567.358 368.619 567.113 367.544 567.235C363.61 567.689 353.991 573.661 349.557 575.543C347.765 576.301 345.402 577.323 344.004 575.192C342.738 573.262 345.424 571.17 346.661 570.077C347.305 569.509 354.782 564.816 353.969 564.117C352.604 564.173 351.338 563.648 350.09 563.147C341.233 559.583 331.5 552.747 327.099 543.638C320.342 529.647 320.931 518.115 328.089 504.428C334.363 492.43 346.422 486.198 353.126 475.285C355.084 472.1 359.312 463.185 359.165 459.633C358.985 455.268 353.513 445.081 355.051 441.869C358.216 435.27 363.57 449.032 367.202 448.981C368.471 445.279 368.383 437.263 371.213 434.749C375.842 430.637 376.615 444.675 376.766 447.402H376.769ZM350.433 540.295C351.908 541.87 355.294 540.757 355.489 538.476C355.64 536.727 354.436 535.764 354.124 534.375C352.688 528.045 353.918 519.847 354.749 513.292C355.018 511.177 356.788 504.964 356.692 503.749C356.666 503.417 356.343 503.074 355.982 502.735C355.456 502.245 354.668 502.261 354.16 502.77C353.579 503.354 352.994 503.942 352.593 504.668C349.638 509.969 346.867 523.66 347.4 529.762C347.566 531.652 349.369 539.155 350.433 540.291V540.295ZM375.426 503.717C375.353 503.046 374.779 502.561 374.157 502.648C370.937 503.102 371.938 506.33 371.588 509.266C370.595 517.562 369.406 527.666 370.197 536.072C370.433 538.571 370.933 541.31 372.744 542.943C373.123 543.287 373.656 543.354 374.105 543.129C375.073 542.644 376.008 542.209 376.052 540.864C375.684 528.499 376.769 515.972 375.43 503.717H375.426ZM395.036 505.892C394.44 505.225 392.512 504.807 392.214 506.156C391.916 507.506 393.447 510.02 393.656 511.701C394.654 519.82 393.204 527.618 390.58 535.149C389.693 537.694 387.842 539.901 387.772 542.592C387.758 543.243 388.159 543.839 388.747 544.005C391.036 544.648 392.994 542.052 394.315 539.94C399.062 532.343 399.655 519.67 397.185 511.07C396.983 510.36 395.242 506.121 395.04 505.892H395.036Z" fill="#EEDBD1"/>
<path d="M204.592 33.792C203.733 37.1247 206.899 41.2207 208.141 43.9891C208.638 45.1019 213.166 53.2295 214.911 56.1661C219.92 64.5902 224.903 73.2759 229.448 81.8311C229.751 82.4017 229.177 83.0346 228.572 82.8057C226.816 82.1341 225.19 80.1989 223.894 79.048C214.165 70.3899 205.592 60.379 195.873 51.8026C192.973 49.2451 186.932 43.4623 183.379 47.2163C181.769 48.9194 186.742 56.0575 188.079 57.9935C196.005 69.4682 206.963 79.0157 215.552 90.0013C220.344 96.1254 224.295 103.215 229.141 109.236C230.956 111.492 233.567 112.175 236.231 111.072C239.003 109.92 244.786 106.953 247.305 105.716C249.571 104.606 251.556 103.481 253.467 102.465C259.288 99.3773 261.328 100.921 260.699 91.9851C259.449 74.3159 250.418 39.2417 239.835 25.4273C236.262 20.7615 231.628 24.2391 232.267 29.6151L242.878 75.3234C243.013 75.8951 242.423 76.3896 241.897 76.1363C240.859 75.6372 240.489 74.6086 239.761 73.5391C231.489 61.3932 223.92 46.0393 214.673 34.9763C212.383 32.2396 206.013 28.2642 204.591 33.7984L204.592 33.792Z" fill="#D1EDD1"/>
<path d="M257.2 185.196C259.767 183.11 271.551 178.124 273.961 180.249C274.874 181.056 274.184 182.874 273.16 183.476L262.077 191.603L288.198 224.851C291.054 222.551 294.118 221.895 297.424 221.103C298.499 220.847 299.615 221.508 299.816 222.592C300.417 225.842 294.591 227.129 291.882 229.232L314.739 256.483C317.605 259.094 320.155 262.032 322.914 264.749C326.252 268.033 338.345 279.526 341.901 280.374C346.825 281.549 350.444 275.279 350.825 270.959C351.78 260.172 339.976 235.342 335.954 223.783C331.811 211.88 328.357 199.697 324.323 187.757C323.522 186.145 323.658 186.552 322.372 187.238C317.825 189.675 313.131 191.547 308.666 194.105C308.18 194.385 307.6 194.514 307.052 194.382C306.447 194.236 306.022 193.868 305.664 193.352C305.53 193.162 305.408 192.955 305.294 192.733C305.083 192.338 305.191 191.842 305.534 191.553C306.039 191.129 306.542 190.702 307.05 190.283C311.687 186.41 316.4 182.667 321.837 179.903C321.837 179.903 313.922 157.99 310.321 151.131C302.793 136.803 297.189 117.263 285.658 105.888C280.599 100.9 270.778 98.5675 264.122 101.415C257.198 104.376 239.283 115.257 234.054 120.398C228.592 125.767 227.349 134.521 230.44 141.471C234.96 151.627 242.483 160.96 248.384 170.138C251.524 175.016 254.102 180.305 257.211 185.195L257.2 185.196ZM259.991 138.41C259.834 138.71 259.534 139.045 258.906 139.447C256.311 141.112 251.661 144.025 251.031 141.312C250.515 139.089 258.058 132.871 259.966 137.134C260.139 137.519 260.249 137.902 259.986 138.412L259.991 138.41ZM275.006 148.543C276.705 146.274 284.884 141.136 286.998 143.167C289.385 145.457 288.276 147.335 285.563 148.922C283.709 150.008 281.743 151.034 278.591 151.725C276.748 152.236 274.033 149.843 275.006 148.543Z" fill="#EEDBD1"/>
<path d="M213.657 249.45C220.821 252.019 226.721 264.986 226.853 272.383C226.941 277.45 222.905 295.259 221.198 300.408C214.943 319.276 208.607 324.376 214.206 346.83C214.854 349.419 217.577 353.448 216.693 356.47C216.31 357.784 211.323 363.533 210.067 365.615C208.541 368.143 206.755 374.689 204.113 376.05C202.487 376.883 199.392 375.61 197.365 375.685C185.506 376.122 177.75 377.384 168.373 384.81C157.268 393.602 145.277 407.747 133.854 414.983C130.383 417.182 125.832 418.872 121.959 416.103C117.11 412.632 115.41 407.671 115.181 401.95C114.86 393.845 118.408 387.867 124.001 382.761C133.399 374.184 150.585 368.468 162.849 364.717C167.121 363.413 171.574 362.606 175.831 361.282C172.013 359.485 167.84 357.756 163.831 356.586C137.443 348.886 98.1334 352.464 87.0057 317.643C83.1378 305.533 101.487 304.857 109.218 306.137C125.577 308.846 136.651 319.618 149.948 328.772C154.933 332.201 177.452 348.189 181.315 348.249C182.684 348.271 183.608 347.671 184.754 347.029C183.525 343.914 182.029 341.865 179.714 339.579C165.763 325.808 141.193 313.226 130.277 297.294C127.005 292.517 123.115 285.882 124.877 280.283C130.073 263.787 145.169 275.635 153.601 282.974C168.494 295.931 176.602 308.374 186.656 325.037C188.151 327.513 194.634 335.666 197.43 335.172C198.875 334.918 198.69 332.51 198.552 331.385C197.171 320.09 193.117 307.864 192 296.154C190.979 285.475 193.995 259.782 201.345 252.679C204.368 249.762 209.535 247.981 213.645 249.456L213.657 249.45ZM145.314 291.504C144.191 289.709 136.945 283.275 135.643 283.483C135.143 283.565 133.481 284.178 133.856 284.922C135.299 288.803 139.919 289.83 142.095 293.143C139.727 292.83 137.629 290.244 136.266 291.802C135.422 292.767 135.808 294.359 136.952 295.053C141.054 297.537 146.013 295.981 149.659 299C150.536 299.726 155.256 304.474 155.16 304.852C152.833 306.037 150.107 303.7 147.751 303.23C146.686 303.377 146.115 305.235 146.86 306.278C149.232 309.599 157.577 307.773 160.781 310.303C161.73 311.052 166.326 315.874 166.172 316.525C163.747 317.646 160.813 314.546 159.537 317.065C159.075 317.976 159.522 319.181 160.47 319.611C163.385 320.938 168.767 319.647 169.908 320.207C170.548 320.519 173.408 324.289 174.748 325.715C174.911 325.886 174.886 326.164 174.7 326.285L172.441 326.403C171.81 326.437 171.327 326.948 171.308 327.606C171.287 328.33 171.66 329.032 172.274 329.412C174.556 330.828 178.412 330.06 179.63 330.888C184.238 334.007 191.289 345.875 194.997 350.743C195.851 351.86 198.647 355.873 200.122 354.328C201.051 352.396 200.422 351.749 199.291 350.147C196.882 346.735 194.468 342.846 192.051 339.607C189.712 336.469 184.633 332.011 183.09 328.986C182.399 327.631 181.57 322.323 180.826 319.643C180.596 318.825 179.773 318.342 179.017 318.597C178.261 318.852 177.747 319.265 178.104 321.613C178.161 321.983 177.855 322.285 177.496 322.208C173.007 321.218 173.809 311.633 171.443 309.06C170.974 308.547 169.407 308.134 168.787 308.736C167.146 310.333 170.62 313.164 168.961 314.041C167.417 311.411 164.051 309.109 162.434 306.873C160.232 303.827 161.751 298.514 159.376 294.951C159.126 294.581 158.656 294.442 158.271 294.611C157.391 294.999 156.526 295.429 156.486 296.6C156.426 298.479 158.616 299.942 157.104 300.771C156.897 300.882 156.564 300.943 156.349 300.869C156.097 300.781 155.832 300.5 155.583 300.221C153.842 298.276 151.372 296.679 150.21 294.779C148.986 292.776 149.949 286.216 146.832 282.755C145.819 281.633 143.848 281.75 143.809 283.629C143.773 285.225 145.077 286.799 145.582 288.466C145.822 289.263 146.457 291.253 145.331 291.517L145.314 291.504ZM214.049 267.809C213.895 268.212 213.327 268.15 213.218 267.719C212.52 265.01 214.406 260.905 212.655 258.872C212.17 258.308 209.956 257.759 209.788 259.218L209.912 266.251C209.87 266.585 209.439 266.632 209.291 266.324C208.346 264.362 206.361 261.422 204.471 262.383C203.973 262.637 203.822 263.303 204.097 263.833C205.05 265.661 205.825 267.618 206.862 269.392C207.682 270.802 209.223 271.649 209.683 273.107C210.083 274.368 209.674 278.391 208.963 280.272C208.863 280.534 208.516 280.548 208.365 280.301L202.634 270.971C202.634 270.971 201.412 269.161 200.411 269.671C199.483 270.143 200.319 272.09 200.319 272.09C201.776 275.235 203.044 278.475 204.842 281.137C205.735 282.461 208.047 283.986 208.397 284.802C208.628 285.344 207.786 295.993 205.912 295.217L200.51 286.542C200.38 286.338 200.132 286.258 199.927 286.352C193.378 289.307 205.455 296.704 206.098 299.781C206.259 300.543 205.564 304.998 205.038 306.876C204.881 307.432 204.289 307.701 203.768 307.453C201.846 306.545 201.758 303.671 200.038 302.504C198.465 301.434 197.222 303.018 197.525 304.426C198.114 307.148 202.24 310.96 204.47 312.7C203.897 317.931 203.084 323.485 202.957 328.765C202.851 333.164 202.775 343.169 203.499 347.14C203.714 348.317 204.631 349.39 205.404 350.11C206.069 350.729 207.108 350.502 207.386 349.669C207.542 349.2 207.643 348.614 207.575 347.914C206.965 341.636 206.497 334.94 206.591 328.682C206.619 326.642 207.153 314.815 207.551 313.996C207.71 313.672 211.568 310.644 212.741 309.231C213.46 308.368 215.765 305.054 216.423 303.238C216.62 302.69 216.319 302.032 215.758 301.874C213.294 301.183 211.872 304.43 210.223 306.221C209.308 307.216 209.494 308.543 208.531 306.309C208.363 299.785 218.77 293.872 218.538 288.245C218.461 286.366 216.763 287.316 215.894 287.986C213.962 289.488 213.399 292.206 211.372 293.492C211.253 293.569 211.085 293.476 211.074 293.325C210.993 291.896 212.196 285.658 212.746 284.751C213.993 282.679 220.94 276.635 220.509 274.271C219.611 269.302 216.23 275.33 215.292 276.58C214.919 277.079 214.623 278.256 213.973 278.252C213.77 278.252 213.455 277.872 213.445 277.645C213.355 276.048 212.898 273.713 213.088 273.33C213.364 272.779 214.808 272.444 215.472 271.771C216.731 270.487 219.693 263.656 218.498 262.356C215.884 259.514 214.967 265.44 214.063 267.797L214.049 267.809ZM109.279 320.044C105.848 319.434 102.817 315.416 99.389 317.015C99.0287 317.182 98.8786 317.642 99.0511 318.03C100.858 322.109 105.848 321.418 108.99 324.104C109.383 324.439 109.303 325.085 108.831 325.223C107.199 325.686 104.992 324.377 103.907 324.503C102.822 324.628 102.234 326.792 103.014 327.606C105.791 330.51 113.726 327.136 115.618 327.589C116.08 327.7 116.922 328.438 117.728 328.758C118.984 329.254 126.805 331.763 121.424 332.659C119.81 332.93 117.73 332.275 115.895 331.993C115.208 331.889 114.569 332.333 114.46 333.032C113.951 336.274 118.4 336.479 121.058 336.299C123.716 336.119 127.359 334.427 129.796 334.511C130.668 334.542 138.143 337.91 138.923 338.496C141.279 340.286 135.987 341.088 134.771 340.998C132.738 340.844 130.487 338.931 129.358 340.938C128.932 341.701 129.332 342.724 130.161 343.037C132.631 343.969 135.428 344.917 137.877 344.466C141.7 343.763 144.052 340.442 147.934 343.168C148.218 343.369 148.152 343.814 147.824 343.867C145.895 344.173 144.733 344.964 145.385 346.589C145.735 347.465 146.632 347.981 147.518 347.892C150.181 347.634 153.919 346.753 156.188 347.468C158.865 348.31 162.866 351.219 165.724 352.407C173.677 355.709 183.604 359.25 191.787 361.792C192.748 362.086 194.209 363.105 195.064 362.28C195.771 361.601 195.814 360.077 194.565 359.286C191.252 357.189 182.668 355.219 178.425 353.503C174.666 351.979 161.297 346.873 158.946 345.053C157.859 344.212 155.307 339.745 153.742 337.174C153.095 336.114 151.8 335.709 150.765 336.241C150.001 336.63 149.807 337.669 150.367 338.389L151.496 339.858C151.78 340.226 151.469 340.747 151.037 340.616C145.556 338.963 143.884 331.059 139.187 328.093C138.119 327.421 137.395 327.816 136.567 328.308C136.174 328.54 136.02 329.062 136.233 329.5C136.827 330.705 137.963 331.462 138.627 332.416C138.996 332.952 139.792 333.747 140.017 334.427C140.219 335.032 139.458 335.446 139.033 334.97C137.351 333.071 133.508 332.486 132.144 330.943C131.249 329.934 131.646 328.23 130.729 326.74C129.447 324.652 126.761 322.663 124.982 320.575C124.393 319.886 123.419 319.754 122.752 320.283C121.992 320.886 121.697 321.609 121.91 322.344C122.283 323.602 126.088 325.195 126.199 327.576C126.216 327.918 125.874 328.141 125.563 327.997C123.191 326.901 117.314 324.829 116.427 323.864C114.322 321.563 112.949 316.777 109.872 314.111C109.294 313.611 108.501 313.506 107.856 313.829L107.421 314.05C106.915 314.298 106.765 314.968 107.105 315.465L109.72 319.252C109.974 319.62 109.7 320.116 109.277 320.04L109.279 320.044ZM160.693 383.422C160.904 383.737 161.295 383.867 161.635 383.759C166.268 382.282 164.95 375.835 168.433 373.63C171.47 371.711 175.313 371.674 178.486 369.891C182.713 368.361 189.12 369.289 192.009 368.164C193.517 367.575 193.912 367.098 194.151 365.453C192.54 362.533 173.875 367.206 170.738 368.252C168.575 368.975 166.525 370.872 164.395 371.232C162.264 371.592 157.466 369.154 156.004 371.866C155.663 372.498 155.996 373.329 156.681 373.58L157.565 373.903C157.865 374.015 158.073 374.363 157.995 374.678C157.054 378.422 150.321 375.109 147.182 375.259C146.599 375.285 146.105 375.667 145.919 376.237C145.523 377.454 146.243 378.817 147.471 379.17L149.015 379.617C149.418 379.731 149.569 380.265 149.271 380.546C145.668 384.023 140.97 383.171 136.122 383.434C135.012 383.491 134.222 384.514 134.38 385.666C134.524 386.744 135.499 387.534 136.525 387.401L138.723 387.114C139.008 387.077 139.173 387.469 138.937 387.632C137.519 388.635 136.497 390.145 134.81 390.809C131.362 392.158 124.397 391.309 122.595 393.783C122.183 394.344 123.169 396.328 124.416 396.072C125.866 395.777 127.347 395.385 128.774 394.978C130.202 394.57 129.908 393.844 130.716 395.757C130.796 395.943 130.774 396.159 130.653 396.308C129.189 398.123 122.746 403.51 124.408 405.269C126.25 407.212 129.2 402.414 130.717 400.961C130.955 400.732 131.349 400.979 131.287 401.314L130.723 404.308C130.602 404.954 130.987 405.639 131.608 405.814C133.622 406.378 134.695 404.233 135.558 402.312C136.422 400.392 137.181 394.136 137.457 393.774C138.109 392.918 139.469 391.912 140.587 391.186C140.951 390.947 141.425 391.36 141.27 391.779C140.876 392.855 139.459 393.739 139.672 395.408C140.215 399.58 143.158 395.888 143.999 394.173C144.841 392.458 145.015 389.176 145.897 387.867C147.192 385.939 150.092 384.111 152.369 382.936C152.876 382.678 153.475 383.168 153.355 383.747C152.944 385.751 150.174 387.566 150.412 388.807C150.65 390.048 152.448 390.516 153.517 389.951C157.236 387.971 157.09 380.468 160.47 377.753C161.067 377.276 162.044 376.471 162.614 377.062C162.838 377.294 162.816 377.667 162.609 377.886C161.146 379.425 159.248 381.283 160.689 383.425L160.693 383.422Z" fill="#D1EDD1"/>
<path d="M286.818 417.813C284.393 420.032 278.462 415.575 274.019 413.558C270.197 411.822 261.478 409.958 257.964 412.005C249.99 416.65 245.145 421.436 235.075 422.412C218.915 423.98 205.963 413.2 206.305 395.691C206.541 383.623 215.267 363.973 225.19 357.749C234.788 351.733 242.816 349.413 253.585 354.619C262.567 358.96 269.992 371.536 270.181 381.499C270.27 386.216 267.459 393.325 269.159 397.217C270.146 399.47 272.877 402.832 274.542 404.762C277.587 408.292 284.002 412.093 285.938 414.983C286.561 415.914 287.338 417.338 286.818 417.813Z" fill="#EEDBD1"/>
<path d="M541.874 343.213C556.499 341.374 572.231 351.668 577.813 365.885C590.682 398.641 577.36 453.324 541.246 462.821C532.131 465.219 515.019 463.647 505.9 460.9C493.379 457.126 480.388 437.22 481.578 423.687C483.22 405.004 493.28 401.565 503.701 389.775C510.948 381.577 509.342 381.1 511.545 371.331C515.48 353.904 525.065 345.324 541.87 343.213H541.874ZM543.589 384.157C538.373 385.791 542.291 395.866 548.479 392.182C551.034 387.936 548.592 382.59 543.589 384.157ZM511.043 409.929C507.099 411.162 507.944 420.744 512.689 420.319C514.91 420.119 519 416.507 518.525 414.205C518.05 411.902 513.68 409.103 511.043 409.929ZM549.908 423.267C547.099 424.131 546.547 428.851 549.311 430.332C555.458 433.619 556.756 421.16 549.908 423.267Z" fill="#EEDBD1"/>
<path d="M674.718 448.297C687.674 447.414 702.469 447.414 711.235 464.473C716.573 474.856 713.057 494.208 704.56 502.194C692.375 513.649 677.15 517.052 661.198 515.731C649.812 514.788 636.352 507.332 634.924 493.969C632.236 468.792 652.568 449.807 674.715 448.297H674.718ZM682.227 506.104C682.117 502.233 678.704 503.33 679.949 506.563C680.072 506.887 679.818 507.25 679.495 507.2C678.491 507.047 677.477 506.242 676.609 506.481C675.625 506.752 675.225 508.995 675.562 509.305C675.682 509.411 677.19 509.579 678.281 509.721C678.741 509.782 678.958 510.362 678.661 510.743L677.83 511.811C677.83 511.811 677.75 511.961 677.777 512.068C677.844 512.36 678.074 512.342 678.317 512.37C680.105 512.598 681.546 510.861 682.574 510.683C684.358 510.376 685.873 511.484 687.618 509.322C687.864 509.016 687.294 508.596 686.917 508.596H685.056C684.942 508.596 684.856 508.468 684.899 508.357C685.269 507.442 688.158 504.444 685.89 503.618C683.281 502.671 684.439 506.702 682.637 506.556C682.414 506.538 682.234 506.342 682.227 506.104Z" fill="#EEDBD1"/>
<path d="M676.579 431.31C678.77 430.597 680.228 431.057 681.071 433.297C681.487 434.403 682.798 440.441 682.732 441.365C682.471 444.97 677.462 443.545 675.157 443.808C669.902 444.412 662.14 447.505 657.206 449.794C655.859 450.419 652.384 452.912 651.641 452.993C649.67 453.2 643.494 448.924 642.925 446.891C640.933 439.753 652.374 443.735 654.623 442.113C655.778 440.406 658.635 433.925 660.241 433.416C663.644 432.331 666.692 435.979 669.958 436.59C671.56 436.548 674.964 431.84 676.579 431.313V431.31Z" fill="#D1EDD1"/>
</svg>
